<mxfile host="app.diagrams.net" modified="2023-03-08T03:41:33.344Z" agent="5.0 (Macintosh; Intel Mac OS X 10_15_7) AppleWebKit/605.1.15 (KHTML, like Gecko) Version/16.3 Safari/605.1.15" etag="Rj2EjT_2za_IH37mVrvz" version="21.0.2" type="github">
  <diagram id="C5RBs43oDa-KdzZeNtuy" name="Page-1">
    <mxGraphModel dx="1947" dy="787" grid="1" gridSize="10" guides="1" tooltips="1" connect="1" arrows="1" fold="1" page="1" pageScale="1" pageWidth="827" pageHeight="1169" math="0" shadow="0">
      <root>
        <mxCell id="WIyWlLk6GJQsqaUBKTNV-0" />
        <mxCell id="WIyWlLk6GJQsqaUBKTNV-1" parent="WIyWlLk6GJQsqaUBKTNV-0" />
        <mxCell id="cYqIVs3wfJdpbzvoYO5g-197" value="ПРОДУКТ" style="shape=folder;fontStyle=1;spacingTop=10;tabWidth=40;tabHeight=14;tabPosition=left;html=1;" parent="WIyWlLk6GJQsqaUBKTNV-1" vertex="1">
          <mxGeometry x="-300" y="450" width="940" height="1250" as="geometry" />
        </mxCell>
        <mxCell id="cYqIVs3wfJdpbzvoYO5g-80" value="Продукт" style="swimlane;fontStyle=0;childLayout=stackLayout;horizontal=1;startSize=30;horizontalStack=0;resizeParent=1;resizeParentMax=0;resizeLast=0;collapsible=1;marginBottom=0;fillColor=#d5e8d4;strokeColor=#82b366;" parent="WIyWlLk6GJQsqaUBKTNV-1" vertex="1">
          <mxGeometry x="280" y="710" width="140" height="870" as="geometry" />
        </mxCell>
        <mxCell id="cYqIVs3wfJdpbzvoYO5g-81" value="barcode" style="text;strokeColor=none;fillColor=none;align=left;verticalAlign=middle;spacingLeft=4;spacingRight=4;overflow=hidden;points=[[0,0.5],[1,0.5]];portConstraint=eastwest;rotatable=0;" parent="cYqIVs3wfJdpbzvoYO5g-80" vertex="1">
          <mxGeometry y="30" width="140" height="30" as="geometry" />
        </mxCell>
        <mxCell id="cYqIVs3wfJdpbzvoYO5g-82" value="composition" style="text;strokeColor=none;fillColor=none;align=left;verticalAlign=middle;spacingLeft=4;spacingRight=4;overflow=hidden;points=[[0,0.5],[1,0.5]];portConstraint=eastwest;rotatable=0;" parent="cYqIVs3wfJdpbzvoYO5g-80" vertex="1">
          <mxGeometry y="60" width="140" height="30" as="geometry" />
        </mxCell>
        <mxCell id="cYqIVs3wfJdpbzvoYO5g-83" value="authenticity" style="text;strokeColor=none;fillColor=none;align=left;verticalAlign=middle;spacingLeft=4;spacingRight=4;overflow=hidden;points=[[0,0.5],[1,0.5]];portConstraint=eastwest;rotatable=0;" parent="cYqIVs3wfJdpbzvoYO5g-80" vertex="1">
          <mxGeometry y="90" width="140" height="30" as="geometry" />
        </mxCell>
        <mxCell id="cYqIVs3wfJdpbzvoYO5g-84" value="harm" style="text;strokeColor=none;fillColor=none;align=left;verticalAlign=middle;spacingLeft=4;spacingRight=4;overflow=hidden;points=[[0,0.5],[1,0.5]];portConstraint=eastwest;rotatable=0;" parent="cYqIVs3wfJdpbzvoYO5g-80" vertex="1">
          <mxGeometry y="120" width="140" height="30" as="geometry" />
        </mxCell>
        <mxCell id="cYqIVs3wfJdpbzvoYO5g-85" value="country" style="text;strokeColor=none;fillColor=none;align=left;verticalAlign=middle;spacingLeft=4;spacingRight=4;overflow=hidden;points=[[0,0.5],[1,0.5]];portConstraint=eastwest;rotatable=0;" parent="cYqIVs3wfJdpbzvoYO5g-80" vertex="1">
          <mxGeometry y="150" width="140" height="30" as="geometry" />
        </mxCell>
        <mxCell id="cYqIVs3wfJdpbzvoYO5g-86" value="weight" style="text;strokeColor=none;fillColor=none;align=left;verticalAlign=middle;spacingLeft=4;spacingRight=4;overflow=hidden;points=[[0,0.5],[1,0.5]];portConstraint=eastwest;rotatable=0;" parent="cYqIVs3wfJdpbzvoYO5g-80" vertex="1">
          <mxGeometry y="180" width="140" height="30" as="geometry" />
        </mxCell>
        <mxCell id="cYqIVs3wfJdpbzvoYO5g-87" value="company" style="text;strokeColor=none;fillColor=none;align=left;verticalAlign=middle;spacingLeft=4;spacingRight=4;overflow=hidden;points=[[0,0.5],[1,0.5]];portConstraint=eastwest;rotatable=0;" parent="cYqIVs3wfJdpbzvoYO5g-80" vertex="1">
          <mxGeometry y="210" width="140" height="30" as="geometry" />
        </mxCell>
        <mxCell id="cYqIVs3wfJdpbzvoYO5g-88" value="description" style="text;strokeColor=none;fillColor=none;align=left;verticalAlign=middle;spacingLeft=4;spacingRight=4;overflow=hidden;points=[[0,0.5],[1,0.5]];portConstraint=eastwest;rotatable=0;" parent="cYqIVs3wfJdpbzvoYO5g-80" vertex="1">
          <mxGeometry y="240" width="140" height="30" as="geometry" />
        </mxCell>
        <mxCell id="cYqIVs3wfJdpbzvoYO5g-89" value="expiration" style="text;strokeColor=none;fillColor=none;align=left;verticalAlign=middle;spacingLeft=4;spacingRight=4;overflow=hidden;points=[[0,0.5],[1,0.5]];portConstraint=eastwest;rotatable=0;" parent="cYqIVs3wfJdpbzvoYO5g-80" vertex="1">
          <mxGeometry y="270" width="140" height="30" as="geometry" />
        </mxCell>
        <mxCell id="cYqIVs3wfJdpbzvoYO5g-90" value="min_temperature" style="text;strokeColor=none;fillColor=none;align=left;verticalAlign=middle;spacingLeft=4;spacingRight=4;overflow=hidden;points=[[0,0.5],[1,0.5]];portConstraint=eastwest;rotatable=0;" parent="cYqIVs3wfJdpbzvoYO5g-80" vertex="1">
          <mxGeometry y="300" width="140" height="30" as="geometry" />
        </mxCell>
        <mxCell id="cYqIVs3wfJdpbzvoYO5g-91" value="max_temperature" style="text;strokeColor=none;fillColor=none;align=left;verticalAlign=middle;spacingLeft=4;spacingRight=4;overflow=hidden;points=[[0,0.5],[1,0.5]];portConstraint=eastwest;rotatable=0;" parent="cYqIVs3wfJdpbzvoYO5g-80" vertex="1">
          <mxGeometry y="330" width="140" height="30" as="geometry" />
        </mxCell>
        <mxCell id="cYqIVs3wfJdpbzvoYO5g-92" value="type" style="text;strokeColor=none;fillColor=none;align=left;verticalAlign=middle;spacingLeft=4;spacingRight=4;overflow=hidden;points=[[0,0.5],[1,0.5]];portConstraint=eastwest;rotatable=0;" parent="cYqIVs3wfJdpbzvoYO5g-80" vertex="1">
          <mxGeometry y="360" width="140" height="30" as="geometry" />
        </mxCell>
        <mxCell id="cYqIVs3wfJdpbzvoYO5g-93" value="taste" style="text;strokeColor=none;fillColor=none;align=left;verticalAlign=middle;spacingLeft=4;spacingRight=4;overflow=hidden;points=[[0,0.5],[1,0.5]];portConstraint=eastwest;rotatable=0;" parent="cYqIVs3wfJdpbzvoYO5g-80" vertex="1">
          <mxGeometry y="390" width="140" height="30" as="geometry" />
        </mxCell>
        <mxCell id="cYqIVs3wfJdpbzvoYO5g-94" value="size" style="text;strokeColor=none;fillColor=none;align=left;verticalAlign=middle;spacingLeft=4;spacingRight=4;overflow=hidden;points=[[0,0.5],[1,0.5]];portConstraint=eastwest;rotatable=0;" parent="cYqIVs3wfJdpbzvoYO5g-80" vertex="1">
          <mxGeometry y="420" width="140" height="30" as="geometry" />
        </mxCell>
        <mxCell id="cYqIVs3wfJdpbzvoYO5g-95" value="material" style="text;strokeColor=none;fillColor=none;align=left;verticalAlign=middle;spacingLeft=4;spacingRight=4;overflow=hidden;points=[[0,0.5],[1,0.5]];portConstraint=eastwest;rotatable=0;" parent="cYqIVs3wfJdpbzvoYO5g-80" vertex="1">
          <mxGeometry y="450" width="140" height="30" as="geometry" />
        </mxCell>
        <mxCell id="cYqIVs3wfJdpbzvoYO5g-96" value="scope" style="text;strokeColor=none;fillColor=none;align=left;verticalAlign=middle;spacingLeft=4;spacingRight=4;overflow=hidden;points=[[0,0.5],[1,0.5]];portConstraint=eastwest;rotatable=0;" parent="cYqIVs3wfJdpbzvoYO5g-80" vertex="1">
          <mxGeometry y="480" width="140" height="30" as="geometry" />
        </mxCell>
        <mxCell id="cYqIVs3wfJdpbzvoYO5g-97" value="manufacturer" style="text;strokeColor=none;fillColor=none;align=left;verticalAlign=middle;spacingLeft=4;spacingRight=4;overflow=hidden;points=[[0,0.5],[1,0.5]];portConstraint=eastwest;rotatable=0;" parent="cYqIVs3wfJdpbzvoYO5g-80" vertex="1">
          <mxGeometry y="510" width="140" height="30" as="geometry" />
        </mxCell>
        <mxCell id="cYqIVs3wfJdpbzvoYO5g-98" value="packaging" style="text;strokeColor=none;fillColor=none;align=left;verticalAlign=middle;spacingLeft=4;spacingRight=4;overflow=hidden;points=[[0,0.5],[1,0.5]];portConstraint=eastwest;rotatable=0;" parent="cYqIVs3wfJdpbzvoYO5g-80" vertex="1">
          <mxGeometry y="540" width="140" height="30" as="geometry" />
        </mxCell>
        <mxCell id="cYqIVs3wfJdpbzvoYO5g-99" value="storage_method" style="text;strokeColor=none;fillColor=none;align=left;verticalAlign=middle;spacingLeft=4;spacingRight=4;overflow=hidden;points=[[0,0.5],[1,0.5]];portConstraint=eastwest;rotatable=0;" parent="cYqIVs3wfJdpbzvoYO5g-80" vertex="1">
          <mxGeometry y="570" width="140" height="30" as="geometry" />
        </mxCell>
        <mxCell id="cYqIVs3wfJdpbzvoYO5g-100" value="number_packages" style="text;strokeColor=none;fillColor=none;align=left;verticalAlign=middle;spacingLeft=4;spacingRight=4;overflow=hidden;points=[[0,0.5],[1,0.5]];portConstraint=eastwest;rotatable=0;" parent="cYqIVs3wfJdpbzvoYO5g-80" vertex="1">
          <mxGeometry y="600" width="140" height="30" as="geometry" />
        </mxCell>
        <mxCell id="cYqIVs3wfJdpbzvoYO5g-101" value="without" style="text;strokeColor=none;fillColor=none;align=left;verticalAlign=middle;spacingLeft=4;spacingRight=4;overflow=hidden;points=[[0,0.5],[1,0.5]];portConstraint=eastwest;rotatable=0;" parent="cYqIVs3wfJdpbzvoYO5g-80" vertex="1">
          <mxGeometry y="630" width="140" height="30" as="geometry" />
        </mxCell>
        <mxCell id="cYqIVs3wfJdpbzvoYO5g-102" value="additional_information" style="text;strokeColor=none;fillColor=none;align=left;verticalAlign=middle;spacingLeft=4;spacingRight=4;overflow=hidden;points=[[0,0.5],[1,0.5]];portConstraint=eastwest;rotatable=0;" parent="cYqIVs3wfJdpbzvoYO5g-80" vertex="1">
          <mxGeometry y="660" width="140" height="30" as="geometry" />
        </mxCell>
        <mxCell id="cYqIVs3wfJdpbzvoYO5g-107" value="allergens" style="text;strokeColor=none;fillColor=none;align=left;verticalAlign=middle;spacingLeft=4;spacingRight=4;overflow=hidden;points=[[0,0.5],[1,0.5]];portConstraint=eastwest;rotatable=0;" parent="cYqIVs3wfJdpbzvoYO5g-80" vertex="1">
          <mxGeometry y="690" width="140" height="30" as="geometry" />
        </mxCell>
        <mxCell id="cYqIVs3wfJdpbzvoYO5g-108" value="conditions" style="text;strokeColor=none;fillColor=none;align=left;verticalAlign=middle;spacingLeft=4;spacingRight=4;overflow=hidden;points=[[0,0.5],[1,0.5]];portConstraint=eastwest;rotatable=0;" parent="cYqIVs3wfJdpbzvoYO5g-80" vertex="1">
          <mxGeometry y="720" width="140" height="30" as="geometry" />
        </mxCell>
        <mxCell id="cYqIVs3wfJdpbzvoYO5g-109" value="processing_method" style="text;strokeColor=none;fillColor=none;align=left;verticalAlign=middle;spacingLeft=4;spacingRight=4;overflow=hidden;points=[[0,0.5],[1,0.5]];portConstraint=eastwest;rotatable=0;" parent="cYqIVs3wfJdpbzvoYO5g-80" vertex="1">
          <mxGeometry y="750" width="140" height="30" as="geometry" />
        </mxCell>
        <mxCell id="cYqIVs3wfJdpbzvoYO5g-110" value="composition_text" style="text;strokeColor=none;fillColor=none;align=left;verticalAlign=middle;spacingLeft=4;spacingRight=4;overflow=hidden;points=[[0,0.5],[1,0.5]];portConstraint=eastwest;rotatable=0;" parent="cYqIVs3wfJdpbzvoYO5g-80" vertex="1">
          <mxGeometry y="780" width="140" height="30" as="geometry" />
        </mxCell>
        <mxCell id="cYqIVs3wfJdpbzvoYO5g-111" value="site" style="text;strokeColor=none;fillColor=none;align=left;verticalAlign=middle;spacingLeft=4;spacingRight=4;overflow=hidden;points=[[0,0.5],[1,0.5]];portConstraint=eastwest;rotatable=0;" parent="cYqIVs3wfJdpbzvoYO5g-80" vertex="1">
          <mxGeometry y="810" width="140" height="30" as="geometry" />
        </mxCell>
        <mxCell id="cYqIVs3wfJdpbzvoYO5g-112" value="time" style="text;strokeColor=none;fillColor=none;align=left;verticalAlign=middle;spacingLeft=4;spacingRight=4;overflow=hidden;points=[[0,0.5],[1,0.5]];portConstraint=eastwest;rotatable=0;" parent="cYqIVs3wfJdpbzvoYO5g-80" vertex="1">
          <mxGeometry y="840" width="140" height="30" as="geometry" />
        </mxCell>
        <mxCell id="cYqIVs3wfJdpbzvoYO5g-113" value="Пищевой добавки" style="swimlane;fontStyle=0;childLayout=stackLayout;horizontal=1;startSize=30;horizontalStack=0;resizeParent=1;resizeParentMax=0;resizeLast=0;collapsible=1;marginBottom=0;fillColor=#d5e8d4;strokeColor=#82b366;" parent="WIyWlLk6GJQsqaUBKTNV-1" vertex="1">
          <mxGeometry x="490" y="840" width="140" height="330" as="geometry" />
        </mxCell>
        <mxCell id="cYqIVs3wfJdpbzvoYO5g-114" value="e_id" style="text;strokeColor=none;fillColor=none;align=left;verticalAlign=middle;spacingLeft=4;spacingRight=4;overflow=hidden;points=[[0,0.5],[1,0.5]];portConstraint=eastwest;rotatable=0;" parent="cYqIVs3wfJdpbzvoYO5g-113" vertex="1">
          <mxGeometry y="30" width="140" height="30" as="geometry" />
        </mxCell>
        <mxCell id="cYqIVs3wfJdpbzvoYO5g-115" value="e_name" style="text;strokeColor=none;fillColor=none;align=left;verticalAlign=middle;spacingLeft=4;spacingRight=4;overflow=hidden;points=[[0,0.5],[1,0.5]];portConstraint=eastwest;rotatable=0;" parent="cYqIVs3wfJdpbzvoYO5g-113" vertex="1">
          <mxGeometry y="60" width="140" height="30" as="geometry" />
        </mxCell>
        <mxCell id="cYqIVs3wfJdpbzvoYO5g-116" value="danger" style="text;strokeColor=none;fillColor=none;align=left;verticalAlign=middle;spacingLeft=4;spacingRight=4;overflow=hidden;points=[[0,0.5],[1,0.5]];portConstraint=eastwest;rotatable=0;" parent="cYqIVs3wfJdpbzvoYO5g-113" vertex="1">
          <mxGeometry y="90" width="140" height="30" as="geometry" />
        </mxCell>
        <mxCell id="cYqIVs3wfJdpbzvoYO5g-117" value="categori" style="text;strokeColor=none;fillColor=none;align=left;verticalAlign=middle;spacingLeft=4;spacingRight=4;overflow=hidden;points=[[0,0.5],[1,0.5]];portConstraint=eastwest;rotatable=0;" parent="cYqIVs3wfJdpbzvoYO5g-113" vertex="1">
          <mxGeometry y="120" width="140" height="30" as="geometry" />
        </mxCell>
        <mxCell id="cYqIVs3wfJdpbzvoYO5g-118" value="origin" style="text;strokeColor=none;fillColor=none;align=left;verticalAlign=middle;spacingLeft=4;spacingRight=4;overflow=hidden;points=[[0,0.5],[1,0.5]];portConstraint=eastwest;rotatable=0;" parent="cYqIVs3wfJdpbzvoYO5g-113" vertex="1">
          <mxGeometry y="150" width="140" height="30" as="geometry" />
        </mxCell>
        <mxCell id="cYqIVs3wfJdpbzvoYO5g-119" value="synonyms" style="text;strokeColor=none;fillColor=none;align=left;verticalAlign=middle;spacingLeft=4;spacingRight=4;overflow=hidden;points=[[0,0.5],[1,0.5]];portConstraint=eastwest;rotatable=0;" parent="cYqIVs3wfJdpbzvoYO5g-113" vertex="1">
          <mxGeometry y="180" width="140" height="30" as="geometry" />
        </mxCell>
        <mxCell id="cYqIVs3wfJdpbzvoYO5g-120" value="benifit" style="text;strokeColor=none;fillColor=none;align=left;verticalAlign=middle;spacingLeft=4;spacingRight=4;overflow=hidden;points=[[0,0.5],[1,0.5]];portConstraint=eastwest;rotatable=0;" parent="cYqIVs3wfJdpbzvoYO5g-113" vertex="1">
          <mxGeometry y="210" width="140" height="30" as="geometry" />
        </mxCell>
        <mxCell id="cYqIVs3wfJdpbzvoYO5g-121" value="harm" style="text;strokeColor=none;fillColor=none;align=left;verticalAlign=middle;spacingLeft=4;spacingRight=4;overflow=hidden;points=[[0,0.5],[1,0.5]];portConstraint=eastwest;rotatable=0;" parent="cYqIVs3wfJdpbzvoYO5g-113" vertex="1">
          <mxGeometry y="240" width="140" height="30" as="geometry" />
        </mxCell>
        <mxCell id="cYqIVs3wfJdpbzvoYO5g-122" value="legislation" style="text;strokeColor=none;fillColor=none;align=left;verticalAlign=middle;spacingLeft=4;spacingRight=4;overflow=hidden;points=[[0,0.5],[1,0.5]];portConstraint=eastwest;rotatable=0;" parent="cYqIVs3wfJdpbzvoYO5g-113" vertex="1">
          <mxGeometry y="270" width="140" height="30" as="geometry" />
        </mxCell>
        <mxCell id="cYqIVs3wfJdpbzvoYO5g-123" value="daily_rate" style="text;strokeColor=none;fillColor=none;align=left;verticalAlign=middle;spacingLeft=4;spacingRight=4;overflow=hidden;points=[[0,0.5],[1,0.5]];portConstraint=eastwest;rotatable=0;" parent="cYqIVs3wfJdpbzvoYO5g-113" vertex="1">
          <mxGeometry y="300" width="140" height="30" as="geometry" />
        </mxCell>
        <mxCell id="cYqIVs3wfJdpbzvoYO5g-124" value="barcode_list" style="swimlane;fontStyle=0;childLayout=stackLayout;horizontal=1;startSize=30;horizontalStack=0;resizeParent=1;resizeParentMax=0;resizeLast=0;collapsible=1;marginBottom=0;fillColor=#d5e8d4;strokeColor=#82b366;" parent="WIyWlLk6GJQsqaUBKTNV-1" vertex="1">
          <mxGeometry x="110" y="710" width="140" height="90" as="geometry" />
        </mxCell>
        <mxCell id="cYqIVs3wfJdpbzvoYO5g-125" value="barcode" style="text;strokeColor=none;fillColor=none;align=left;verticalAlign=middle;spacingLeft=4;spacingRight=4;overflow=hidden;points=[[0,0.5],[1,0.5]];portConstraint=eastwest;rotatable=0;" parent="cYqIVs3wfJdpbzvoYO5g-124" vertex="1">
          <mxGeometry y="30" width="140" height="30" as="geometry" />
        </mxCell>
        <mxCell id="cYqIVs3wfJdpbzvoYO5g-126" value="name" style="text;strokeColor=none;fillColor=none;align=left;verticalAlign=middle;spacingLeft=4;spacingRight=4;overflow=hidden;points=[[0,0.5],[1,0.5]];portConstraint=eastwest;rotatable=0;" parent="cYqIVs3wfJdpbzvoYO5g-124" vertex="1">
          <mxGeometry y="60" width="140" height="30" as="geometry" />
        </mxCell>
        <mxCell id="cYqIVs3wfJdpbzvoYO5g-128" value="1" style="endArrow=open;html=1;endSize=12;startArrow=diamondThin;startSize=14;startFill=1;edgeStyle=orthogonalEdgeStyle;align=left;verticalAlign=bottom;rounded=0;exitX=1;exitY=0.5;exitDx=0;exitDy=0;" parent="WIyWlLk6GJQsqaUBKTNV-1" source="cYqIVs3wfJdpbzvoYO5g-82" target="cYqIVs3wfJdpbzvoYO5g-114" edge="1">
          <mxGeometry x="-1" y="3" relative="1" as="geometry">
            <mxPoint x="430" y="780" as="sourcePoint" />
            <mxPoint x="590" y="780" as="targetPoint" />
          </mxGeometry>
        </mxCell>
        <mxCell id="cYqIVs3wfJdpbzvoYO5g-130" value="n_scan" style="swimlane;fontStyle=0;childLayout=stackLayout;horizontal=1;startSize=30;horizontalStack=0;resizeParent=1;resizeParentMax=0;resizeLast=0;collapsible=1;marginBottom=0;" parent="WIyWlLk6GJQsqaUBKTNV-1" vertex="1">
          <mxGeometry x="80" y="900" width="140" height="90" as="geometry" />
        </mxCell>
        <mxCell id="cYqIVs3wfJdpbzvoYO5g-131" value="barcode" style="text;strokeColor=none;fillColor=none;align=left;verticalAlign=middle;spacingLeft=4;spacingRight=4;overflow=hidden;points=[[0,0.5],[1,0.5]];portConstraint=eastwest;rotatable=0;" parent="cYqIVs3wfJdpbzvoYO5g-130" vertex="1">
          <mxGeometry y="30" width="140" height="30" as="geometry" />
        </mxCell>
        <mxCell id="cYqIVs3wfJdpbzvoYO5g-132" value="num" style="text;strokeColor=none;fillColor=none;align=left;verticalAlign=middle;spacingLeft=4;spacingRight=4;overflow=hidden;points=[[0,0.5],[1,0.5]];portConstraint=eastwest;rotatable=0;" parent="cYqIVs3wfJdpbzvoYO5g-130" vertex="1">
          <mxGeometry y="60" width="140" height="30" as="geometry" />
        </mxCell>
        <mxCell id="cYqIVs3wfJdpbzvoYO5g-142" value="category_type" style="swimlane;fontStyle=0;childLayout=stackLayout;horizontal=1;startSize=30;horizontalStack=0;resizeParent=1;resizeParentMax=0;resizeLast=0;collapsible=1;marginBottom=0;fillColor=#d5e8d4;strokeColor=#82b366;" parent="WIyWlLk6GJQsqaUBKTNV-1" vertex="1">
          <mxGeometry x="-140" y="760" width="140" height="120" as="geometry" />
        </mxCell>
        <mxCell id="cYqIVs3wfJdpbzvoYO5g-143" value="barcode" style="text;strokeColor=none;fillColor=none;align=left;verticalAlign=middle;spacingLeft=4;spacingRight=4;overflow=hidden;points=[[0,0.5],[1,0.5]];portConstraint=eastwest;rotatable=0;" parent="cYqIVs3wfJdpbzvoYO5g-142" vertex="1">
          <mxGeometry y="30" width="140" height="30" as="geometry" />
        </mxCell>
        <mxCell id="cYqIVs3wfJdpbzvoYO5g-144" value="category" style="text;strokeColor=none;fillColor=none;align=left;verticalAlign=middle;spacingLeft=4;spacingRight=4;overflow=hidden;points=[[0,0.5],[1,0.5]];portConstraint=eastwest;rotatable=0;" parent="cYqIVs3wfJdpbzvoYO5g-142" vertex="1">
          <mxGeometry y="60" width="140" height="30" as="geometry" />
        </mxCell>
        <mxCell id="cYqIVs3wfJdpbzvoYO5g-148" value="type" style="text;strokeColor=none;fillColor=none;align=left;verticalAlign=middle;spacingLeft=4;spacingRight=4;overflow=hidden;points=[[0,0.5],[1,0.5]];portConstraint=eastwest;rotatable=0;" parent="cYqIVs3wfJdpbzvoYO5g-142" vertex="1">
          <mxGeometry y="90" width="140" height="30" as="geometry" />
        </mxCell>
        <mxCell id="3lYBaBdNZLxaftU4QnHs-0" style="edgeStyle=orthogonalEdgeStyle;rounded=0;orthogonalLoop=1;jettySize=auto;html=1;exitX=0;exitY=0.5;exitDx=0;exitDy=0;entryX=0.209;entryY=1;entryDx=0;entryDy=0;entryPerimeter=0;curved=1;" parent="WIyWlLk6GJQsqaUBKTNV-1" source="cYqIVs3wfJdpbzvoYO5g-131" target="cYqIVs3wfJdpbzvoYO5g-126" edge="1">
          <mxGeometry relative="1" as="geometry" />
        </mxCell>
        <mxCell id="3lYBaBdNZLxaftU4QnHs-1" style="edgeStyle=orthogonalEdgeStyle;curved=1;rounded=0;orthogonalLoop=1;jettySize=auto;html=1;exitX=1;exitY=0.5;exitDx=0;exitDy=0;" parent="WIyWlLk6GJQsqaUBKTNV-1" source="cYqIVs3wfJdpbzvoYO5g-143" target="cYqIVs3wfJdpbzvoYO5g-125" edge="1">
          <mxGeometry relative="1" as="geometry" />
        </mxCell>
        <mxCell id="3lYBaBdNZLxaftU4QnHs-2" style="edgeStyle=orthogonalEdgeStyle;curved=1;rounded=0;orthogonalLoop=1;jettySize=auto;html=1;exitX=0;exitY=0.5;exitDx=0;exitDy=0;entryX=1;entryY=0.5;entryDx=0;entryDy=0;" parent="WIyWlLk6GJQsqaUBKTNV-1" source="cYqIVs3wfJdpbzvoYO5g-81" target="cYqIVs3wfJdpbzvoYO5g-125" edge="1">
          <mxGeometry relative="1" as="geometry" />
        </mxCell>
        <mxCell id="5aHIGrzVU5xn1-LQkvVe-4" value="ПОЛЬЗОВАТЕЛЬ" style="shape=folder;fontStyle=1;spacingTop=10;tabWidth=40;tabHeight=14;tabPosition=left;html=1;fillColor=#f5f5f5;strokeColor=#666666;gradientColor=#b3b3b3;" parent="WIyWlLk6GJQsqaUBKTNV-1" vertex="1">
          <mxGeometry x="970" y="1970" width="1070" height="850" as="geometry" />
        </mxCell>
        <mxCell id="5aHIGrzVU5xn1-LQkvVe-5" value="ПРОДУКТ" style="shape=folder;fontStyle=1;spacingTop=10;tabWidth=40;tabHeight=14;tabPosition=left;html=1;fillColor=#f5f5f5;strokeColor=#666666;gradientColor=#b3b3b3;" parent="WIyWlLk6GJQsqaUBKTNV-1" vertex="1">
          <mxGeometry x="-310" y="1960" width="940" height="1250" as="geometry" />
        </mxCell>
        <mxCell id="5aHIGrzVU5xn1-LQkvVe-6" value="Продукт" style="swimlane;fontStyle=0;childLayout=stackLayout;horizontal=1;startSize=30;horizontalStack=0;resizeParent=1;resizeParentMax=0;resizeLast=0;collapsible=1;marginBottom=0;fillColor=#d5e8d4;strokeColor=#82b366;" parent="WIyWlLk6GJQsqaUBKTNV-1" vertex="1">
          <mxGeometry x="270" y="2220" width="140" height="990" as="geometry" />
        </mxCell>
        <mxCell id="5aHIGrzVU5xn1-LQkvVe-7" value="barcode" style="text;strokeColor=none;fillColor=none;align=left;verticalAlign=middle;spacingLeft=4;spacingRight=4;overflow=hidden;points=[[0,0.5],[1,0.5]];portConstraint=eastwest;rotatable=0;" parent="5aHIGrzVU5xn1-LQkvVe-6" vertex="1">
          <mxGeometry y="30" width="140" height="30" as="geometry" />
        </mxCell>
        <mxCell id="5aHIGrzVU5xn1-LQkvVe-8" value="composition" style="text;strokeColor=none;fillColor=none;align=left;verticalAlign=middle;spacingLeft=4;spacingRight=4;overflow=hidden;points=[[0,0.5],[1,0.5]];portConstraint=eastwest;rotatable=0;" parent="5aHIGrzVU5xn1-LQkvVe-6" vertex="1">
          <mxGeometry y="60" width="140" height="30" as="geometry" />
        </mxCell>
        <mxCell id="5aHIGrzVU5xn1-LQkvVe-9" value="authenticity" style="text;strokeColor=none;fillColor=none;align=left;verticalAlign=middle;spacingLeft=4;spacingRight=4;overflow=hidden;points=[[0,0.5],[1,0.5]];portConstraint=eastwest;rotatable=0;" parent="5aHIGrzVU5xn1-LQkvVe-6" vertex="1">
          <mxGeometry y="90" width="140" height="30" as="geometry" />
        </mxCell>
        <mxCell id="5aHIGrzVU5xn1-LQkvVe-10" value="harm" style="text;strokeColor=none;fillColor=none;align=left;verticalAlign=middle;spacingLeft=4;spacingRight=4;overflow=hidden;points=[[0,0.5],[1,0.5]];portConstraint=eastwest;rotatable=0;" parent="5aHIGrzVU5xn1-LQkvVe-6" vertex="1">
          <mxGeometry y="120" width="140" height="30" as="geometry" />
        </mxCell>
        <mxCell id="5aHIGrzVU5xn1-LQkvVe-11" value="country" style="text;strokeColor=none;fillColor=none;align=left;verticalAlign=middle;spacingLeft=4;spacingRight=4;overflow=hidden;points=[[0,0.5],[1,0.5]];portConstraint=eastwest;rotatable=0;" parent="5aHIGrzVU5xn1-LQkvVe-6" vertex="1">
          <mxGeometry y="150" width="140" height="30" as="geometry" />
        </mxCell>
        <mxCell id="5aHIGrzVU5xn1-LQkvVe-12" value="weight" style="text;strokeColor=none;fillColor=none;align=left;verticalAlign=middle;spacingLeft=4;spacingRight=4;overflow=hidden;points=[[0,0.5],[1,0.5]];portConstraint=eastwest;rotatable=0;" parent="5aHIGrzVU5xn1-LQkvVe-6" vertex="1">
          <mxGeometry y="180" width="140" height="30" as="geometry" />
        </mxCell>
        <mxCell id="5aHIGrzVU5xn1-LQkvVe-13" value="company" style="text;strokeColor=none;fillColor=none;align=left;verticalAlign=middle;spacingLeft=4;spacingRight=4;overflow=hidden;points=[[0,0.5],[1,0.5]];portConstraint=eastwest;rotatable=0;" parent="5aHIGrzVU5xn1-LQkvVe-6" vertex="1">
          <mxGeometry y="210" width="140" height="30" as="geometry" />
        </mxCell>
        <mxCell id="5aHIGrzVU5xn1-LQkvVe-14" value="description" style="text;strokeColor=none;fillColor=none;align=left;verticalAlign=middle;spacingLeft=4;spacingRight=4;overflow=hidden;points=[[0,0.5],[1,0.5]];portConstraint=eastwest;rotatable=0;" parent="5aHIGrzVU5xn1-LQkvVe-6" vertex="1">
          <mxGeometry y="240" width="140" height="30" as="geometry" />
        </mxCell>
        <mxCell id="5aHIGrzVU5xn1-LQkvVe-15" value="expiration" style="text;strokeColor=none;fillColor=none;align=left;verticalAlign=middle;spacingLeft=4;spacingRight=4;overflow=hidden;points=[[0,0.5],[1,0.5]];portConstraint=eastwest;rotatable=0;" parent="5aHIGrzVU5xn1-LQkvVe-6" vertex="1">
          <mxGeometry y="270" width="140" height="30" as="geometry" />
        </mxCell>
        <mxCell id="5aHIGrzVU5xn1-LQkvVe-16" value="min_temperature" style="text;strokeColor=none;fillColor=none;align=left;verticalAlign=middle;spacingLeft=4;spacingRight=4;overflow=hidden;points=[[0,0.5],[1,0.5]];portConstraint=eastwest;rotatable=0;" parent="5aHIGrzVU5xn1-LQkvVe-6" vertex="1">
          <mxGeometry y="300" width="140" height="30" as="geometry" />
        </mxCell>
        <mxCell id="5aHIGrzVU5xn1-LQkvVe-17" value="max_temperature" style="text;strokeColor=none;fillColor=none;align=left;verticalAlign=middle;spacingLeft=4;spacingRight=4;overflow=hidden;points=[[0,0.5],[1,0.5]];portConstraint=eastwest;rotatable=0;" parent="5aHIGrzVU5xn1-LQkvVe-6" vertex="1">
          <mxGeometry y="330" width="140" height="30" as="geometry" />
        </mxCell>
        <mxCell id="5aHIGrzVU5xn1-LQkvVe-18" value="type" style="text;strokeColor=none;fillColor=none;align=left;verticalAlign=middle;spacingLeft=4;spacingRight=4;overflow=hidden;points=[[0,0.5],[1,0.5]];portConstraint=eastwest;rotatable=0;" parent="5aHIGrzVU5xn1-LQkvVe-6" vertex="1">
          <mxGeometry y="360" width="140" height="30" as="geometry" />
        </mxCell>
        <mxCell id="5aHIGrzVU5xn1-LQkvVe-19" value="taste" style="text;strokeColor=none;fillColor=none;align=left;verticalAlign=middle;spacingLeft=4;spacingRight=4;overflow=hidden;points=[[0,0.5],[1,0.5]];portConstraint=eastwest;rotatable=0;" parent="5aHIGrzVU5xn1-LQkvVe-6" vertex="1">
          <mxGeometry y="390" width="140" height="30" as="geometry" />
        </mxCell>
        <mxCell id="5aHIGrzVU5xn1-LQkvVe-20" value="size" style="text;strokeColor=none;fillColor=none;align=left;verticalAlign=middle;spacingLeft=4;spacingRight=4;overflow=hidden;points=[[0,0.5],[1,0.5]];portConstraint=eastwest;rotatable=0;" parent="5aHIGrzVU5xn1-LQkvVe-6" vertex="1">
          <mxGeometry y="420" width="140" height="30" as="geometry" />
        </mxCell>
        <mxCell id="5aHIGrzVU5xn1-LQkvVe-21" value="material" style="text;strokeColor=none;fillColor=none;align=left;verticalAlign=middle;spacingLeft=4;spacingRight=4;overflow=hidden;points=[[0,0.5],[1,0.5]];portConstraint=eastwest;rotatable=0;" parent="5aHIGrzVU5xn1-LQkvVe-6" vertex="1">
          <mxGeometry y="450" width="140" height="30" as="geometry" />
        </mxCell>
        <mxCell id="5aHIGrzVU5xn1-LQkvVe-22" value="scope" style="text;strokeColor=none;fillColor=none;align=left;verticalAlign=middle;spacingLeft=4;spacingRight=4;overflow=hidden;points=[[0,0.5],[1,0.5]];portConstraint=eastwest;rotatable=0;" parent="5aHIGrzVU5xn1-LQkvVe-6" vertex="1">
          <mxGeometry y="480" width="140" height="30" as="geometry" />
        </mxCell>
        <mxCell id="5aHIGrzVU5xn1-LQkvVe-23" value="manufacturer" style="text;strokeColor=none;fillColor=none;align=left;verticalAlign=middle;spacingLeft=4;spacingRight=4;overflow=hidden;points=[[0,0.5],[1,0.5]];portConstraint=eastwest;rotatable=0;" parent="5aHIGrzVU5xn1-LQkvVe-6" vertex="1">
          <mxGeometry y="510" width="140" height="30" as="geometry" />
        </mxCell>
        <mxCell id="5aHIGrzVU5xn1-LQkvVe-24" value="packaging" style="text;strokeColor=none;fillColor=none;align=left;verticalAlign=middle;spacingLeft=4;spacingRight=4;overflow=hidden;points=[[0,0.5],[1,0.5]];portConstraint=eastwest;rotatable=0;" parent="5aHIGrzVU5xn1-LQkvVe-6" vertex="1">
          <mxGeometry y="540" width="140" height="30" as="geometry" />
        </mxCell>
        <mxCell id="5aHIGrzVU5xn1-LQkvVe-25" value="storage_method" style="text;strokeColor=none;fillColor=none;align=left;verticalAlign=middle;spacingLeft=4;spacingRight=4;overflow=hidden;points=[[0,0.5],[1,0.5]];portConstraint=eastwest;rotatable=0;" parent="5aHIGrzVU5xn1-LQkvVe-6" vertex="1">
          <mxGeometry y="570" width="140" height="30" as="geometry" />
        </mxCell>
        <mxCell id="5aHIGrzVU5xn1-LQkvVe-26" value="number_packages" style="text;strokeColor=none;fillColor=none;align=left;verticalAlign=middle;spacingLeft=4;spacingRight=4;overflow=hidden;points=[[0,0.5],[1,0.5]];portConstraint=eastwest;rotatable=0;" parent="5aHIGrzVU5xn1-LQkvVe-6" vertex="1">
          <mxGeometry y="600" width="140" height="30" as="geometry" />
        </mxCell>
        <mxCell id="5aHIGrzVU5xn1-LQkvVe-27" value="without" style="text;strokeColor=none;fillColor=none;align=left;verticalAlign=middle;spacingLeft=4;spacingRight=4;overflow=hidden;points=[[0,0.5],[1,0.5]];portConstraint=eastwest;rotatable=0;" parent="5aHIGrzVU5xn1-LQkvVe-6" vertex="1">
          <mxGeometry y="630" width="140" height="30" as="geometry" />
        </mxCell>
        <mxCell id="5aHIGrzVU5xn1-LQkvVe-28" value="additional_information" style="text;strokeColor=none;fillColor=none;align=left;verticalAlign=middle;spacingLeft=4;spacingRight=4;overflow=hidden;points=[[0,0.5],[1,0.5]];portConstraint=eastwest;rotatable=0;" parent="5aHIGrzVU5xn1-LQkvVe-6" vertex="1">
          <mxGeometry y="660" width="140" height="30" as="geometry" />
        </mxCell>
        <mxCell id="5aHIGrzVU5xn1-LQkvVe-29" value="kilklock" style="text;strokeColor=none;fillColor=none;align=left;verticalAlign=middle;spacingLeft=4;spacingRight=4;overflow=hidden;points=[[0,0.5],[1,0.5]];portConstraint=eastwest;rotatable=0;" parent="5aHIGrzVU5xn1-LQkvVe-6" vertex="1">
          <mxGeometry y="690" width="140" height="30" as="geometry" />
        </mxCell>
        <mxCell id="5aHIGrzVU5xn1-LQkvVe-30" value="proteins" style="text;strokeColor=none;fillColor=none;align=left;verticalAlign=middle;spacingLeft=4;spacingRight=4;overflow=hidden;points=[[0,0.5],[1,0.5]];portConstraint=eastwest;rotatable=0;" parent="5aHIGrzVU5xn1-LQkvVe-6" vertex="1">
          <mxGeometry y="720" width="140" height="30" as="geometry" />
        </mxCell>
        <mxCell id="5aHIGrzVU5xn1-LQkvVe-31" value="fats" style="text;strokeColor=none;fillColor=none;align=left;verticalAlign=middle;spacingLeft=4;spacingRight=4;overflow=hidden;points=[[0,0.5],[1,0.5]];portConstraint=eastwest;rotatable=0;" parent="5aHIGrzVU5xn1-LQkvVe-6" vertex="1">
          <mxGeometry y="750" width="140" height="30" as="geometry" />
        </mxCell>
        <mxCell id="5aHIGrzVU5xn1-LQkvVe-32" value="carbohydrates" style="text;strokeColor=none;fillColor=none;align=left;verticalAlign=middle;spacingLeft=4;spacingRight=4;overflow=hidden;points=[[0,0.5],[1,0.5]];portConstraint=eastwest;rotatable=0;" parent="5aHIGrzVU5xn1-LQkvVe-6" vertex="1">
          <mxGeometry y="780" width="140" height="30" as="geometry" />
        </mxCell>
        <mxCell id="5aHIGrzVU5xn1-LQkvVe-33" value="allergens" style="text;strokeColor=none;fillColor=none;align=left;verticalAlign=middle;spacingLeft=4;spacingRight=4;overflow=hidden;points=[[0,0.5],[1,0.5]];portConstraint=eastwest;rotatable=0;" parent="5aHIGrzVU5xn1-LQkvVe-6" vertex="1">
          <mxGeometry y="810" width="140" height="30" as="geometry" />
        </mxCell>
        <mxCell id="5aHIGrzVU5xn1-LQkvVe-34" value="conditions" style="text;strokeColor=none;fillColor=none;align=left;verticalAlign=middle;spacingLeft=4;spacingRight=4;overflow=hidden;points=[[0,0.5],[1,0.5]];portConstraint=eastwest;rotatable=0;" parent="5aHIGrzVU5xn1-LQkvVe-6" vertex="1">
          <mxGeometry y="840" width="140" height="30" as="geometry" />
        </mxCell>
        <mxCell id="5aHIGrzVU5xn1-LQkvVe-35" value="processing_method" style="text;strokeColor=none;fillColor=none;align=left;verticalAlign=middle;spacingLeft=4;spacingRight=4;overflow=hidden;points=[[0,0.5],[1,0.5]];portConstraint=eastwest;rotatable=0;" parent="5aHIGrzVU5xn1-LQkvVe-6" vertex="1">
          <mxGeometry y="870" width="140" height="30" as="geometry" />
        </mxCell>
        <mxCell id="5aHIGrzVU5xn1-LQkvVe-36" value="composition_text" style="text;strokeColor=none;fillColor=none;align=left;verticalAlign=middle;spacingLeft=4;spacingRight=4;overflow=hidden;points=[[0,0.5],[1,0.5]];portConstraint=eastwest;rotatable=0;" parent="5aHIGrzVU5xn1-LQkvVe-6" vertex="1">
          <mxGeometry y="900" width="140" height="30" as="geometry" />
        </mxCell>
        <mxCell id="5aHIGrzVU5xn1-LQkvVe-37" value="site" style="text;strokeColor=none;fillColor=none;align=left;verticalAlign=middle;spacingLeft=4;spacingRight=4;overflow=hidden;points=[[0,0.5],[1,0.5]];portConstraint=eastwest;rotatable=0;" parent="5aHIGrzVU5xn1-LQkvVe-6" vertex="1">
          <mxGeometry y="930" width="140" height="30" as="geometry" />
        </mxCell>
        <mxCell id="5aHIGrzVU5xn1-LQkvVe-38" value="time" style="text;strokeColor=none;fillColor=none;align=left;verticalAlign=middle;spacingLeft=4;spacingRight=4;overflow=hidden;points=[[0,0.5],[1,0.5]];portConstraint=eastwest;rotatable=0;" parent="5aHIGrzVU5xn1-LQkvVe-6" vertex="1">
          <mxGeometry y="960" width="140" height="30" as="geometry" />
        </mxCell>
        <mxCell id="5aHIGrzVU5xn1-LQkvVe-39" value="Пищевой добавки" style="swimlane;fontStyle=0;childLayout=stackLayout;horizontal=1;startSize=30;horizontalStack=0;resizeParent=1;resizeParentMax=0;resizeLast=0;collapsible=1;marginBottom=0;fillColor=#d5e8d4;strokeColor=#82b366;" parent="WIyWlLk6GJQsqaUBKTNV-1" vertex="1">
          <mxGeometry x="480" y="2350" width="140" height="330" as="geometry" />
        </mxCell>
        <mxCell id="5aHIGrzVU5xn1-LQkvVe-40" value="e_id" style="text;strokeColor=none;fillColor=none;align=left;verticalAlign=middle;spacingLeft=4;spacingRight=4;overflow=hidden;points=[[0,0.5],[1,0.5]];portConstraint=eastwest;rotatable=0;" parent="5aHIGrzVU5xn1-LQkvVe-39" vertex="1">
          <mxGeometry y="30" width="140" height="30" as="geometry" />
        </mxCell>
        <mxCell id="5aHIGrzVU5xn1-LQkvVe-41" value="e_name" style="text;strokeColor=none;fillColor=none;align=left;verticalAlign=middle;spacingLeft=4;spacingRight=4;overflow=hidden;points=[[0,0.5],[1,0.5]];portConstraint=eastwest;rotatable=0;" parent="5aHIGrzVU5xn1-LQkvVe-39" vertex="1">
          <mxGeometry y="60" width="140" height="30" as="geometry" />
        </mxCell>
        <mxCell id="5aHIGrzVU5xn1-LQkvVe-42" value="danger" style="text;strokeColor=none;fillColor=none;align=left;verticalAlign=middle;spacingLeft=4;spacingRight=4;overflow=hidden;points=[[0,0.5],[1,0.5]];portConstraint=eastwest;rotatable=0;" parent="5aHIGrzVU5xn1-LQkvVe-39" vertex="1">
          <mxGeometry y="90" width="140" height="30" as="geometry" />
        </mxCell>
        <mxCell id="5aHIGrzVU5xn1-LQkvVe-43" value="categori" style="text;strokeColor=none;fillColor=none;align=left;verticalAlign=middle;spacingLeft=4;spacingRight=4;overflow=hidden;points=[[0,0.5],[1,0.5]];portConstraint=eastwest;rotatable=0;" parent="5aHIGrzVU5xn1-LQkvVe-39" vertex="1">
          <mxGeometry y="120" width="140" height="30" as="geometry" />
        </mxCell>
        <mxCell id="5aHIGrzVU5xn1-LQkvVe-44" value="origin" style="text;strokeColor=none;fillColor=none;align=left;verticalAlign=middle;spacingLeft=4;spacingRight=4;overflow=hidden;points=[[0,0.5],[1,0.5]];portConstraint=eastwest;rotatable=0;" parent="5aHIGrzVU5xn1-LQkvVe-39" vertex="1">
          <mxGeometry y="150" width="140" height="30" as="geometry" />
        </mxCell>
        <mxCell id="5aHIGrzVU5xn1-LQkvVe-45" value="synonyms" style="text;strokeColor=none;fillColor=none;align=left;verticalAlign=middle;spacingLeft=4;spacingRight=4;overflow=hidden;points=[[0,0.5],[1,0.5]];portConstraint=eastwest;rotatable=0;" parent="5aHIGrzVU5xn1-LQkvVe-39" vertex="1">
          <mxGeometry y="180" width="140" height="30" as="geometry" />
        </mxCell>
        <mxCell id="5aHIGrzVU5xn1-LQkvVe-46" value="benifit" style="text;strokeColor=none;fillColor=none;align=left;verticalAlign=middle;spacingLeft=4;spacingRight=4;overflow=hidden;points=[[0,0.5],[1,0.5]];portConstraint=eastwest;rotatable=0;" parent="5aHIGrzVU5xn1-LQkvVe-39" vertex="1">
          <mxGeometry y="210" width="140" height="30" as="geometry" />
        </mxCell>
        <mxCell id="5aHIGrzVU5xn1-LQkvVe-47" value="harm" style="text;strokeColor=none;fillColor=none;align=left;verticalAlign=middle;spacingLeft=4;spacingRight=4;overflow=hidden;points=[[0,0.5],[1,0.5]];portConstraint=eastwest;rotatable=0;" parent="5aHIGrzVU5xn1-LQkvVe-39" vertex="1">
          <mxGeometry y="240" width="140" height="30" as="geometry" />
        </mxCell>
        <mxCell id="5aHIGrzVU5xn1-LQkvVe-48" value="legislation" style="text;strokeColor=none;fillColor=none;align=left;verticalAlign=middle;spacingLeft=4;spacingRight=4;overflow=hidden;points=[[0,0.5],[1,0.5]];portConstraint=eastwest;rotatable=0;" parent="5aHIGrzVU5xn1-LQkvVe-39" vertex="1">
          <mxGeometry y="270" width="140" height="30" as="geometry" />
        </mxCell>
        <mxCell id="5aHIGrzVU5xn1-LQkvVe-49" value="daily_rate" style="text;strokeColor=none;fillColor=none;align=left;verticalAlign=middle;spacingLeft=4;spacingRight=4;overflow=hidden;points=[[0,0.5],[1,0.5]];portConstraint=eastwest;rotatable=0;" parent="5aHIGrzVU5xn1-LQkvVe-39" vertex="1">
          <mxGeometry y="300" width="140" height="30" as="geometry" />
        </mxCell>
        <mxCell id="5aHIGrzVU5xn1-LQkvVe-50" value="barcode_list" style="swimlane;fontStyle=0;childLayout=stackLayout;horizontal=1;startSize=30;horizontalStack=0;resizeParent=1;resizeParentMax=0;resizeLast=0;collapsible=1;marginBottom=0;fillColor=#d5e8d4;strokeColor=#82b366;" parent="WIyWlLk6GJQsqaUBKTNV-1" vertex="1">
          <mxGeometry x="100" y="2220" width="140" height="90" as="geometry" />
        </mxCell>
        <mxCell id="5aHIGrzVU5xn1-LQkvVe-51" value="barcode" style="text;strokeColor=none;fillColor=none;align=left;verticalAlign=middle;spacingLeft=4;spacingRight=4;overflow=hidden;points=[[0,0.5],[1,0.5]];portConstraint=eastwest;rotatable=0;" parent="5aHIGrzVU5xn1-LQkvVe-50" vertex="1">
          <mxGeometry y="30" width="140" height="30" as="geometry" />
        </mxCell>
        <mxCell id="5aHIGrzVU5xn1-LQkvVe-52" value="name" style="text;strokeColor=none;fillColor=none;align=left;verticalAlign=middle;spacingLeft=4;spacingRight=4;overflow=hidden;points=[[0,0.5],[1,0.5]];portConstraint=eastwest;rotatable=0;" parent="5aHIGrzVU5xn1-LQkvVe-50" vertex="1">
          <mxGeometry y="60" width="140" height="30" as="geometry" />
        </mxCell>
        <mxCell id="5aHIGrzVU5xn1-LQkvVe-53" value="1" style="endArrow=open;html=1;endSize=12;startArrow=diamondThin;startSize=14;startFill=1;edgeStyle=orthogonalEdgeStyle;align=left;verticalAlign=bottom;rounded=0;exitX=1;exitY=0.5;exitDx=0;exitDy=0;" parent="WIyWlLk6GJQsqaUBKTNV-1" source="5aHIGrzVU5xn1-LQkvVe-8" target="5aHIGrzVU5xn1-LQkvVe-40" edge="1">
          <mxGeometry x="-1" y="3" relative="1" as="geometry">
            <mxPoint x="420" y="2290" as="sourcePoint" />
            <mxPoint x="580" y="2290" as="targetPoint" />
          </mxGeometry>
        </mxCell>
        <mxCell id="5aHIGrzVU5xn1-LQkvVe-54" value="n_scan" style="swimlane;fontStyle=0;childLayout=stackLayout;horizontal=1;startSize=30;horizontalStack=0;resizeParent=1;resizeParentMax=0;resizeLast=0;collapsible=1;marginBottom=0;" parent="WIyWlLk6GJQsqaUBKTNV-1" vertex="1">
          <mxGeometry x="70" y="2410" width="140" height="90" as="geometry" />
        </mxCell>
        <mxCell id="5aHIGrzVU5xn1-LQkvVe-55" value="barcode" style="text;strokeColor=none;fillColor=none;align=left;verticalAlign=middle;spacingLeft=4;spacingRight=4;overflow=hidden;points=[[0,0.5],[1,0.5]];portConstraint=eastwest;rotatable=0;" parent="5aHIGrzVU5xn1-LQkvVe-54" vertex="1">
          <mxGeometry y="30" width="140" height="30" as="geometry" />
        </mxCell>
        <mxCell id="5aHIGrzVU5xn1-LQkvVe-56" value="num" style="text;strokeColor=none;fillColor=none;align=left;verticalAlign=middle;spacingLeft=4;spacingRight=4;overflow=hidden;points=[[0,0.5],[1,0.5]];portConstraint=eastwest;rotatable=0;" parent="5aHIGrzVU5xn1-LQkvVe-54" vertex="1">
          <mxGeometry y="60" width="140" height="30" as="geometry" />
        </mxCell>
        <mxCell id="5aHIGrzVU5xn1-LQkvVe-57" value="category_type" style="swimlane;fontStyle=0;childLayout=stackLayout;horizontal=1;startSize=30;horizontalStack=0;resizeParent=1;resizeParentMax=0;resizeLast=0;collapsible=1;marginBottom=0;fillColor=#d5e8d4;strokeColor=#82b366;" parent="WIyWlLk6GJQsqaUBKTNV-1" vertex="1">
          <mxGeometry x="-150" y="2270" width="140" height="120" as="geometry" />
        </mxCell>
        <mxCell id="5aHIGrzVU5xn1-LQkvVe-58" value="barcode" style="text;strokeColor=none;fillColor=none;align=left;verticalAlign=middle;spacingLeft=4;spacingRight=4;overflow=hidden;points=[[0,0.5],[1,0.5]];portConstraint=eastwest;rotatable=0;" parent="5aHIGrzVU5xn1-LQkvVe-57" vertex="1">
          <mxGeometry y="30" width="140" height="30" as="geometry" />
        </mxCell>
        <mxCell id="5aHIGrzVU5xn1-LQkvVe-59" value="category" style="text;strokeColor=none;fillColor=none;align=left;verticalAlign=middle;spacingLeft=4;spacingRight=4;overflow=hidden;points=[[0,0.5],[1,0.5]];portConstraint=eastwest;rotatable=0;" parent="5aHIGrzVU5xn1-LQkvVe-57" vertex="1">
          <mxGeometry y="60" width="140" height="30" as="geometry" />
        </mxCell>
        <mxCell id="5aHIGrzVU5xn1-LQkvVe-60" value="type" style="text;strokeColor=none;fillColor=none;align=left;verticalAlign=middle;spacingLeft=4;spacingRight=4;overflow=hidden;points=[[0,0.5],[1,0.5]];portConstraint=eastwest;rotatable=0;" parent="5aHIGrzVU5xn1-LQkvVe-57" vertex="1">
          <mxGeometry y="90" width="140" height="30" as="geometry" />
        </mxCell>
        <mxCell id="5aHIGrzVU5xn1-LQkvVe-61" value="user" style="swimlane;fontStyle=0;childLayout=stackLayout;horizontal=1;startSize=30;horizontalStack=0;resizeParent=1;resizeParentMax=0;resizeLast=0;collapsible=1;marginBottom=0;fillColor=#d5e8d4;strokeColor=#82b366;" parent="WIyWlLk6GJQsqaUBKTNV-1" vertex="1">
          <mxGeometry x="1490" y="2140" width="140" height="120" as="geometry" />
        </mxCell>
        <mxCell id="5aHIGrzVU5xn1-LQkvVe-62" value="login" style="text;strokeColor=none;fillColor=none;align=left;verticalAlign=middle;spacingLeft=4;spacingRight=4;overflow=hidden;points=[[0,0.5],[1,0.5]];portConstraint=eastwest;rotatable=0;" parent="5aHIGrzVU5xn1-LQkvVe-61" vertex="1">
          <mxGeometry y="30" width="140" height="30" as="geometry" />
        </mxCell>
        <mxCell id="5aHIGrzVU5xn1-LQkvVe-63" value="name" style="text;strokeColor=none;fillColor=none;align=left;verticalAlign=middle;spacingLeft=4;spacingRight=4;overflow=hidden;points=[[0,0.5],[1,0.5]];portConstraint=eastwest;rotatable=0;" parent="5aHIGrzVU5xn1-LQkvVe-61" vertex="1">
          <mxGeometry y="60" width="140" height="30" as="geometry" />
        </mxCell>
        <mxCell id="5aHIGrzVU5xn1-LQkvVe-64" value="surname" style="text;strokeColor=none;fillColor=none;align=left;verticalAlign=middle;spacingLeft=4;spacingRight=4;overflow=hidden;points=[[0,0.5],[1,0.5]];portConstraint=eastwest;rotatable=0;" parent="5aHIGrzVU5xn1-LQkvVe-61" vertex="1">
          <mxGeometry y="90" width="140" height="30" as="geometry" />
        </mxCell>
        <mxCell id="5aHIGrzVU5xn1-LQkvVe-65" value="access_token" style="swimlane;fontStyle=0;childLayout=stackLayout;horizontal=1;startSize=30;horizontalStack=0;resizeParent=1;resizeParentMax=0;resizeLast=0;collapsible=1;marginBottom=0;" parent="WIyWlLk6GJQsqaUBKTNV-1" vertex="1">
          <mxGeometry x="1730" y="2050" width="140" height="120" as="geometry" />
        </mxCell>
        <mxCell id="5aHIGrzVU5xn1-LQkvVe-66" value="1" style="endArrow=open;html=1;endSize=12;startArrow=diamondThin;startSize=14;startFill=1;edgeStyle=orthogonalEdgeStyle;align=left;verticalAlign=bottom;rounded=0;entryX=1;entryY=0.5;entryDx=0;entryDy=0;curved=1;" parent="5aHIGrzVU5xn1-LQkvVe-65" target="5aHIGrzVU5xn1-LQkvVe-62" edge="1">
          <mxGeometry x="-1" y="3" relative="1" as="geometry">
            <mxPoint y="40" as="sourcePoint" />
            <mxPoint x="160" y="40" as="targetPoint" />
          </mxGeometry>
        </mxCell>
        <mxCell id="5aHIGrzVU5xn1-LQkvVe-67" value="login" style="text;strokeColor=none;fillColor=none;align=left;verticalAlign=middle;spacingLeft=4;spacingRight=4;overflow=hidden;points=[[0,0.5],[1,0.5]];portConstraint=eastwest;rotatable=0;" parent="5aHIGrzVU5xn1-LQkvVe-65" vertex="1">
          <mxGeometry y="30" width="140" height="30" as="geometry" />
        </mxCell>
        <mxCell id="5aHIGrzVU5xn1-LQkvVe-68" value="token" style="text;strokeColor=none;fillColor=none;align=left;verticalAlign=middle;spacingLeft=4;spacingRight=4;overflow=hidden;points=[[0,0.5],[1,0.5]];portConstraint=eastwest;rotatable=0;" parent="5aHIGrzVU5xn1-LQkvVe-65" vertex="1">
          <mxGeometry y="60" width="140" height="30" as="geometry" />
        </mxCell>
        <mxCell id="5aHIGrzVU5xn1-LQkvVe-69" value="time" style="text;strokeColor=none;fillColor=none;align=left;verticalAlign=middle;spacingLeft=4;spacingRight=4;overflow=hidden;points=[[0,0.5],[1,0.5]];portConstraint=eastwest;rotatable=0;" parent="5aHIGrzVU5xn1-LQkvVe-65" vertex="1">
          <mxGeometry y="90" width="140" height="30" as="geometry" />
        </mxCell>
        <mxCell id="5aHIGrzVU5xn1-LQkvVe-70" value="account" style="swimlane;fontStyle=0;childLayout=stackLayout;horizontal=1;startSize=30;horizontalStack=0;resizeParent=1;resizeParentMax=0;resizeLast=0;collapsible=1;marginBottom=0;" parent="WIyWlLk6GJQsqaUBKTNV-1" vertex="1">
          <mxGeometry x="1730" y="2230" width="140" height="90" as="geometry" />
        </mxCell>
        <mxCell id="5aHIGrzVU5xn1-LQkvVe-71" value="login" style="text;strokeColor=none;fillColor=none;align=left;verticalAlign=middle;spacingLeft=4;spacingRight=4;overflow=hidden;points=[[0,0.5],[1,0.5]];portConstraint=eastwest;rotatable=0;" parent="5aHIGrzVU5xn1-LQkvVe-70" vertex="1">
          <mxGeometry y="30" width="140" height="30" as="geometry" />
        </mxCell>
        <mxCell id="5aHIGrzVU5xn1-LQkvVe-72" value="password" style="text;strokeColor=none;fillColor=none;align=left;verticalAlign=middle;spacingLeft=4;spacingRight=4;overflow=hidden;points=[[0,0.5],[1,0.5]];portConstraint=eastwest;rotatable=0;" parent="5aHIGrzVU5xn1-LQkvVe-70" vertex="1">
          <mxGeometry y="60" width="140" height="30" as="geometry" />
        </mxCell>
        <mxCell id="5aHIGrzVU5xn1-LQkvVe-73" value="bioscan_status" style="swimlane;fontStyle=0;childLayout=stackLayout;horizontal=1;startSize=30;horizontalStack=0;resizeParent=1;resizeParentMax=0;resizeLast=0;collapsible=1;marginBottom=0;" parent="WIyWlLk6GJQsqaUBKTNV-1" vertex="1">
          <mxGeometry x="1440" y="2490" width="140" height="120" as="geometry" />
        </mxCell>
        <mxCell id="5aHIGrzVU5xn1-LQkvVe-74" value="login" style="text;strokeColor=none;fillColor=none;align=left;verticalAlign=middle;spacingLeft=4;spacingRight=4;overflow=hidden;points=[[0,0.5],[1,0.5]];portConstraint=eastwest;rotatable=0;" parent="5aHIGrzVU5xn1-LQkvVe-73" vertex="1">
          <mxGeometry y="30" width="140" height="30" as="geometry" />
        </mxCell>
        <mxCell id="5aHIGrzVU5xn1-LQkvVe-75" value="status" style="text;strokeColor=none;fillColor=none;align=left;verticalAlign=middle;spacingLeft=4;spacingRight=4;overflow=hidden;points=[[0,0.5],[1,0.5]];portConstraint=eastwest;rotatable=0;" parent="5aHIGrzVU5xn1-LQkvVe-73" vertex="1">
          <mxGeometry y="60" width="140" height="30" as="geometry" />
        </mxCell>
        <mxCell id="5aHIGrzVU5xn1-LQkvVe-76" value="date" style="text;strokeColor=none;fillColor=none;align=left;verticalAlign=middle;spacingLeft=4;spacingRight=4;overflow=hidden;points=[[0,0.5],[1,0.5]];portConstraint=eastwest;rotatable=0;" parent="5aHIGrzVU5xn1-LQkvVe-73" vertex="1">
          <mxGeometry y="90" width="140" height="30" as="geometry" />
        </mxCell>
        <mxCell id="5aHIGrzVU5xn1-LQkvVe-77" value="n_requests" style="swimlane;fontStyle=0;childLayout=stackLayout;horizontal=1;startSize=30;horizontalStack=0;resizeParent=1;resizeParentMax=0;resizeLast=0;collapsible=1;marginBottom=0;" parent="WIyWlLk6GJQsqaUBKTNV-1" vertex="1">
          <mxGeometry x="1730" y="2550" width="140" height="180" as="geometry" />
        </mxCell>
        <mxCell id="5aHIGrzVU5xn1-LQkvVe-78" value="login" style="text;strokeColor=none;fillColor=none;align=left;verticalAlign=middle;spacingLeft=4;spacingRight=4;overflow=hidden;points=[[0,0.5],[1,0.5]];portConstraint=eastwest;rotatable=0;" parent="5aHIGrzVU5xn1-LQkvVe-77" vertex="1">
          <mxGeometry y="30" width="140" height="30" as="geometry" />
        </mxCell>
        <mxCell id="5aHIGrzVU5xn1-LQkvVe-79" value="num" style="text;strokeColor=none;fillColor=none;align=left;verticalAlign=middle;spacingLeft=4;spacingRight=4;overflow=hidden;points=[[0,0.5],[1,0.5]];portConstraint=eastwest;rotatable=0;" parent="5aHIGrzVU5xn1-LQkvVe-77" vertex="1">
          <mxGeometry y="60" width="140" height="30" as="geometry" />
        </mxCell>
        <mxCell id="5aHIGrzVU5xn1-LQkvVe-80" value="sum_num" style="text;strokeColor=none;fillColor=none;align=left;verticalAlign=middle;spacingLeft=4;spacingRight=4;overflow=hidden;points=[[0,0.5],[1,0.5]];portConstraint=eastwest;rotatable=0;" parent="5aHIGrzVU5xn1-LQkvVe-77" vertex="1">
          <mxGeometry y="90" width="140" height="30" as="geometry" />
        </mxCell>
        <mxCell id="5aHIGrzVU5xn1-LQkvVe-81" value="num_day" style="text;strokeColor=none;fillColor=none;align=left;verticalAlign=middle;spacingLeft=4;spacingRight=4;overflow=hidden;points=[[0,0.5],[1,0.5]];portConstraint=eastwest;rotatable=0;" parent="5aHIGrzVU5xn1-LQkvVe-77" vertex="1">
          <mxGeometry y="120" width="140" height="30" as="geometry" />
        </mxCell>
        <mxCell id="5aHIGrzVU5xn1-LQkvVe-82" value="time" style="text;strokeColor=none;fillColor=none;align=left;verticalAlign=middle;spacingLeft=4;spacingRight=4;overflow=hidden;points=[[0,0.5],[1,0.5]];portConstraint=eastwest;rotatable=0;" parent="5aHIGrzVU5xn1-LQkvVe-77" vertex="1">
          <mxGeometry y="150" width="140" height="30" as="geometry" />
        </mxCell>
        <mxCell id="5aHIGrzVU5xn1-LQkvVe-83" value="other_provider_account" style="swimlane;fontStyle=0;childLayout=stackLayout;horizontal=1;startSize=30;horizontalStack=0;resizeParent=1;resizeParentMax=0;resizeLast=0;collapsible=1;marginBottom=0;" parent="WIyWlLk6GJQsqaUBKTNV-1" vertex="1">
          <mxGeometry x="1260" y="2300" width="140" height="120" as="geometry" />
        </mxCell>
        <mxCell id="5aHIGrzVU5xn1-LQkvVe-84" value="login" style="text;strokeColor=none;fillColor=none;align=left;verticalAlign=middle;spacingLeft=4;spacingRight=4;overflow=hidden;points=[[0,0.5],[1,0.5]];portConstraint=eastwest;rotatable=0;" parent="5aHIGrzVU5xn1-LQkvVe-83" vertex="1">
          <mxGeometry y="30" width="140" height="30" as="geometry" />
        </mxCell>
        <mxCell id="5aHIGrzVU5xn1-LQkvVe-85" value="provider_id" style="text;strokeColor=none;fillColor=none;align=left;verticalAlign=middle;spacingLeft=4;spacingRight=4;overflow=hidden;points=[[0,0.5],[1,0.5]];portConstraint=eastwest;rotatable=0;" parent="5aHIGrzVU5xn1-LQkvVe-83" vertex="1">
          <mxGeometry y="60" width="140" height="30" as="geometry" />
        </mxCell>
        <mxCell id="5aHIGrzVU5xn1-LQkvVe-86" value="original_id" style="text;strokeColor=none;fillColor=none;align=left;verticalAlign=middle;spacingLeft=4;spacingRight=4;overflow=hidden;points=[[0,0.5],[1,0.5]];portConstraint=eastwest;rotatable=0;" parent="5aHIGrzVU5xn1-LQkvVe-83" vertex="1">
          <mxGeometry y="90" width="140" height="30" as="geometry" />
        </mxCell>
        <mxCell id="5aHIGrzVU5xn1-LQkvVe-87" value="other_provider" style="swimlane;fontStyle=0;childLayout=stackLayout;horizontal=1;startSize=30;horizontalStack=0;resizeParent=1;resizeParentMax=0;resizeLast=0;collapsible=1;marginBottom=0;" parent="WIyWlLk6GJQsqaUBKTNV-1" vertex="1">
          <mxGeometry x="1050" y="2150" width="140" height="90" as="geometry" />
        </mxCell>
        <mxCell id="5aHIGrzVU5xn1-LQkvVe-88" value="id" style="text;strokeColor=none;fillColor=none;align=left;verticalAlign=middle;spacingLeft=4;spacingRight=4;overflow=hidden;points=[[0,0.5],[1,0.5]];portConstraint=eastwest;rotatable=0;" parent="5aHIGrzVU5xn1-LQkvVe-87" vertex="1">
          <mxGeometry y="30" width="140" height="30" as="geometry" />
        </mxCell>
        <mxCell id="5aHIGrzVU5xn1-LQkvVe-89" value="provider" style="text;strokeColor=none;fillColor=none;align=left;verticalAlign=middle;spacingLeft=4;spacingRight=4;overflow=hidden;points=[[0,0.5],[1,0.5]];portConstraint=eastwest;rotatable=0;" parent="5aHIGrzVU5xn1-LQkvVe-87" vertex="1">
          <mxGeometry y="60" width="140" height="30" as="geometry" />
        </mxCell>
        <mxCell id="5aHIGrzVU5xn1-LQkvVe-90" value="refresh_token" style="swimlane;fontStyle=0;childLayout=stackLayout;horizontal=1;startSize=30;horizontalStack=0;resizeParent=1;resizeParentMax=0;resizeLast=0;collapsible=1;marginBottom=0;" parent="WIyWlLk6GJQsqaUBKTNV-1" vertex="1">
          <mxGeometry x="1260" y="2050" width="140" height="120" as="geometry" />
        </mxCell>
        <mxCell id="5aHIGrzVU5xn1-LQkvVe-91" value="login" style="text;strokeColor=none;fillColor=none;align=left;verticalAlign=middle;spacingLeft=4;spacingRight=4;overflow=hidden;points=[[0,0.5],[1,0.5]];portConstraint=eastwest;rotatable=0;" parent="5aHIGrzVU5xn1-LQkvVe-90" vertex="1">
          <mxGeometry y="30" width="140" height="30" as="geometry" />
        </mxCell>
        <mxCell id="5aHIGrzVU5xn1-LQkvVe-92" value="1" style="endArrow=open;html=1;endSize=12;startArrow=diamondThin;startSize=14;startFill=1;edgeStyle=orthogonalEdgeStyle;align=left;verticalAlign=bottom;rounded=0;curved=1;entryX=0;entryY=0.5;entryDx=0;entryDy=0;" parent="5aHIGrzVU5xn1-LQkvVe-90" target="5aHIGrzVU5xn1-LQkvVe-62" edge="1">
          <mxGeometry x="-1" y="3" relative="1" as="geometry">
            <mxPoint x="140" y="50" as="sourcePoint" />
            <mxPoint x="300" y="50" as="targetPoint" />
          </mxGeometry>
        </mxCell>
        <mxCell id="5aHIGrzVU5xn1-LQkvVe-93" value="token" style="text;strokeColor=none;fillColor=none;align=left;verticalAlign=middle;spacingLeft=4;spacingRight=4;overflow=hidden;points=[[0,0.5],[1,0.5]];portConstraint=eastwest;rotatable=0;" parent="5aHIGrzVU5xn1-LQkvVe-90" vertex="1">
          <mxGeometry y="60" width="140" height="30" as="geometry" />
        </mxCell>
        <mxCell id="5aHIGrzVU5xn1-LQkvVe-94" value="time" style="text;strokeColor=none;fillColor=none;align=left;verticalAlign=middle;spacingLeft=4;spacingRight=4;overflow=hidden;points=[[0,0.5],[1,0.5]];portConstraint=eastwest;rotatable=0;" parent="5aHIGrzVU5xn1-LQkvVe-90" vertex="1">
          <mxGeometry y="90" width="140" height="30" as="geometry" />
        </mxCell>
        <mxCell id="5aHIGrzVU5xn1-LQkvVe-95" value="status" style="swimlane;fontStyle=0;childLayout=stackLayout;horizontal=1;startSize=30;horizontalStack=0;resizeParent=1;resizeParentMax=0;resizeLast=0;collapsible=1;marginBottom=0;" parent="WIyWlLk6GJQsqaUBKTNV-1" vertex="1">
          <mxGeometry x="1150" y="2520" width="140" height="90" as="geometry" />
        </mxCell>
        <mxCell id="5aHIGrzVU5xn1-LQkvVe-96" value="id" style="text;strokeColor=none;fillColor=none;align=left;verticalAlign=middle;spacingLeft=4;spacingRight=4;overflow=hidden;points=[[0,0.5],[1,0.5]];portConstraint=eastwest;rotatable=0;" parent="5aHIGrzVU5xn1-LQkvVe-95" vertex="1">
          <mxGeometry y="30" width="140" height="30" as="geometry" />
        </mxCell>
        <mxCell id="5aHIGrzVU5xn1-LQkvVe-97" value="name" style="text;strokeColor=none;fillColor=none;align=left;verticalAlign=middle;spacingLeft=4;spacingRight=4;overflow=hidden;points=[[0,0.5],[1,0.5]];portConstraint=eastwest;rotatable=0;" parent="5aHIGrzVU5xn1-LQkvVe-95" vertex="1">
          <mxGeometry y="60" width="140" height="30" as="geometry" />
        </mxCell>
        <mxCell id="5aHIGrzVU5xn1-LQkvVe-98" style="edgeStyle=orthogonalEdgeStyle;rounded=0;orthogonalLoop=1;jettySize=auto;html=1;exitX=0;exitY=0.5;exitDx=0;exitDy=0;entryX=0.209;entryY=1;entryDx=0;entryDy=0;entryPerimeter=0;curved=1;" parent="WIyWlLk6GJQsqaUBKTNV-1" source="5aHIGrzVU5xn1-LQkvVe-55" target="5aHIGrzVU5xn1-LQkvVe-52" edge="1">
          <mxGeometry relative="1" as="geometry" />
        </mxCell>
        <mxCell id="5aHIGrzVU5xn1-LQkvVe-99" style="edgeStyle=orthogonalEdgeStyle;curved=1;rounded=0;orthogonalLoop=1;jettySize=auto;html=1;exitX=1;exitY=0.5;exitDx=0;exitDy=0;" parent="WIyWlLk6GJQsqaUBKTNV-1" source="5aHIGrzVU5xn1-LQkvVe-58" target="5aHIGrzVU5xn1-LQkvVe-51" edge="1">
          <mxGeometry relative="1" as="geometry" />
        </mxCell>
        <mxCell id="5aHIGrzVU5xn1-LQkvVe-100" style="edgeStyle=orthogonalEdgeStyle;curved=1;rounded=0;orthogonalLoop=1;jettySize=auto;html=1;exitX=0;exitY=0.5;exitDx=0;exitDy=0;entryX=1;entryY=0.5;entryDx=0;entryDy=0;" parent="WIyWlLk6GJQsqaUBKTNV-1" source="5aHIGrzVU5xn1-LQkvVe-7" target="5aHIGrzVU5xn1-LQkvVe-51" edge="1">
          <mxGeometry relative="1" as="geometry" />
        </mxCell>
        <mxCell id="5aHIGrzVU5xn1-LQkvVe-101" style="edgeStyle=orthogonalEdgeStyle;curved=1;rounded=0;orthogonalLoop=1;jettySize=auto;html=1;exitX=1;exitY=0.5;exitDx=0;exitDy=0;" parent="WIyWlLk6GJQsqaUBKTNV-1" source="5aHIGrzVU5xn1-LQkvVe-88" target="5aHIGrzVU5xn1-LQkvVe-85" edge="1">
          <mxGeometry relative="1" as="geometry" />
        </mxCell>
        <mxCell id="5aHIGrzVU5xn1-LQkvVe-102" style="edgeStyle=orthogonalEdgeStyle;curved=1;rounded=0;orthogonalLoop=1;jettySize=auto;html=1;exitX=1;exitY=0.5;exitDx=0;exitDy=0;entryX=0;entryY=0.5;entryDx=0;entryDy=0;" parent="WIyWlLk6GJQsqaUBKTNV-1" source="5aHIGrzVU5xn1-LQkvVe-84" target="5aHIGrzVU5xn1-LQkvVe-62" edge="1">
          <mxGeometry relative="1" as="geometry" />
        </mxCell>
        <mxCell id="5aHIGrzVU5xn1-LQkvVe-103" style="edgeStyle=orthogonalEdgeStyle;curved=1;rounded=0;orthogonalLoop=1;jettySize=auto;html=1;exitX=1;exitY=0.5;exitDx=0;exitDy=0;" parent="WIyWlLk6GJQsqaUBKTNV-1" source="5aHIGrzVU5xn1-LQkvVe-74" target="5aHIGrzVU5xn1-LQkvVe-62" edge="1">
          <mxGeometry relative="1" as="geometry" />
        </mxCell>
        <mxCell id="5aHIGrzVU5xn1-LQkvVe-104" style="edgeStyle=orthogonalEdgeStyle;rounded=0;orthogonalLoop=1;jettySize=auto;html=1;exitX=1;exitY=0.5;exitDx=0;exitDy=0;entryX=0;entryY=0.5;entryDx=0;entryDy=0;curved=1;" parent="WIyWlLk6GJQsqaUBKTNV-1" source="5aHIGrzVU5xn1-LQkvVe-96" target="5aHIGrzVU5xn1-LQkvVe-74" edge="1">
          <mxGeometry relative="1" as="geometry" />
        </mxCell>
        <mxCell id="5aHIGrzVU5xn1-LQkvVe-105" style="edgeStyle=orthogonalEdgeStyle;rounded=0;orthogonalLoop=1;jettySize=auto;html=1;exitX=0;exitY=0.5;exitDx=0;exitDy=0;entryX=1;entryY=0.5;entryDx=0;entryDy=0;curved=1;" parent="WIyWlLk6GJQsqaUBKTNV-1" source="5aHIGrzVU5xn1-LQkvVe-71" target="5aHIGrzVU5xn1-LQkvVe-62" edge="1">
          <mxGeometry relative="1" as="geometry" />
        </mxCell>
        <mxCell id="5aHIGrzVU5xn1-LQkvVe-106" style="edgeStyle=orthogonalEdgeStyle;curved=1;rounded=0;orthogonalLoop=1;jettySize=auto;html=1;exitX=0;exitY=0.5;exitDx=0;exitDy=0;entryX=1;entryY=0.5;entryDx=0;entryDy=0;" parent="WIyWlLk6GJQsqaUBKTNV-1" source="5aHIGrzVU5xn1-LQkvVe-78" target="5aHIGrzVU5xn1-LQkvVe-62" edge="1">
          <mxGeometry relative="1" as="geometry" />
        </mxCell>
        <mxCell id="5aHIGrzVU5xn1-LQkvVe-124" value="Пользователь" style="swimlane;whiteSpace=wrap;html=1;fillColor=#d5e8d4;strokeColor=#82b366;" parent="WIyWlLk6GJQsqaUBKTNV-1" vertex="1">
          <mxGeometry x="827" y="10" width="710" height="340" as="geometry" />
        </mxCell>
        <mxCell id="cYqIVs3wfJdpbzvoYO5g-149" value="User" style="swimlane;fontStyle=0;childLayout=stackLayout;horizontal=1;startSize=30;horizontalStack=0;resizeParent=1;resizeParentMax=0;resizeLast=0;collapsible=1;marginBottom=0;fillColor=#d5e8d4;strokeColor=#82b366;" parent="5aHIGrzVU5xn1-LQkvVe-124" vertex="1">
          <mxGeometry x="270" y="65" width="160" height="180" as="geometry" />
        </mxCell>
        <mxCell id="cYqIVs3wfJdpbzvoYO5g-150" value="login: string [0...1]" style="text;strokeColor=none;fillColor=none;align=left;verticalAlign=middle;spacingLeft=4;spacingRight=4;overflow=hidden;points=[[0,0.5],[1,0.5]];portConstraint=eastwest;rotatable=0;" parent="cYqIVs3wfJdpbzvoYO5g-149" vertex="1">
          <mxGeometry y="30" width="160" height="30" as="geometry" />
        </mxCell>
        <mxCell id="cYqIVs3wfJdpbzvoYO5g-151" value="name: HumanName [0...1]" style="text;strokeColor=none;fillColor=none;align=left;verticalAlign=middle;spacingLeft=4;spacingRight=4;overflow=hidden;points=[[0,0.5],[1,0.5]];portConstraint=eastwest;rotatable=0;" parent="cYqIVs3wfJdpbzvoYO5g-149" vertex="1">
          <mxGeometry y="60" width="160" height="30" as="geometry" />
        </mxCell>
        <mxCell id="5aHIGrzVU5xn1-LQkvVe-107" value="gender: code [0...1]" style="text;strokeColor=none;fillColor=none;align=left;verticalAlign=middle;spacingLeft=4;spacingRight=4;overflow=hidden;points=[[0,0.5],[1,0.5]];portConstraint=eastwest;rotatable=0;" parent="cYqIVs3wfJdpbzvoYO5g-149" vertex="1">
          <mxGeometry y="90" width="160" height="30" as="geometry" />
        </mxCell>
        <mxCell id="5aHIGrzVU5xn1-LQkvVe-108" value="birthDate: date [0...1]" style="text;strokeColor=none;fillColor=none;align=left;verticalAlign=middle;spacingLeft=4;spacingRight=4;overflow=hidden;points=[[0,0.5],[1,0.5]];portConstraint=eastwest;rotatable=0;fontStyle=0" parent="cYqIVs3wfJdpbzvoYO5g-149" vertex="1">
          <mxGeometry y="120" width="160" height="30" as="geometry" />
        </mxCell>
        <mxCell id="ZBmOmXvxWi1l-vRK5AxD-6" value="product: FoodProduct [0...*]" style="text;strokeColor=none;fillColor=none;align=left;verticalAlign=middle;spacingLeft=4;spacingRight=4;overflow=hidden;points=[[0,0.5],[1,0.5]];portConstraint=eastwest;rotatable=0;fontStyle=0" parent="cYqIVs3wfJdpbzvoYO5g-149" vertex="1">
          <mxGeometry y="150" width="160" height="30" as="geometry" />
        </mxCell>
        <mxCell id="5aHIGrzVU5xn1-LQkvVe-114" value="&amp;nbsp;&lt;a style=&quot;text-align: start; font-family: OpenSansCondensedLight; font-size: 12.32px;&quot; xlink:href=&quot;datatypes.html#HumanName&quot; id=&quot;n115&quot;&gt;HumanName&lt;/a&gt;" style="swimlane;fontStyle=0;childLayout=stackLayout;horizontal=1;startSize=30;horizontalStack=0;resizeParent=1;resizeParentMax=0;resizeLast=0;collapsible=1;marginBottom=0;whiteSpace=wrap;html=1;fillColor=#d5e8d4;strokeColor=#82b366;" parent="5aHIGrzVU5xn1-LQkvVe-124" vertex="1">
          <mxGeometry x="20" y="110" width="140" height="120" as="geometry" />
        </mxCell>
        <mxCell id="5aHIGrzVU5xn1-LQkvVe-115" value="id: identifier [0...*]" style="text;strokeColor=none;fillColor=none;align=left;verticalAlign=middle;spacingLeft=4;spacingRight=4;overflow=hidden;points=[[0,0.5],[1,0.5]];portConstraint=eastwest;rotatable=0;whiteSpace=wrap;html=1;" parent="5aHIGrzVU5xn1-LQkvVe-114" vertex="1">
          <mxGeometry y="30" width="140" height="30" as="geometry" />
        </mxCell>
        <mxCell id="5aHIGrzVU5xn1-LQkvVe-116" value="family: string [0...1]" style="text;strokeColor=none;fillColor=none;align=left;verticalAlign=middle;spacingLeft=4;spacingRight=4;overflow=hidden;points=[[0,0.5],[1,0.5]];portConstraint=eastwest;rotatable=0;whiteSpace=wrap;html=1;" parent="5aHIGrzVU5xn1-LQkvVe-114" vertex="1">
          <mxGeometry y="60" width="140" height="30" as="geometry" />
        </mxCell>
        <mxCell id="5aHIGrzVU5xn1-LQkvVe-117" value="given: string [0...1]" style="text;strokeColor=none;fillColor=none;align=left;verticalAlign=middle;spacingLeft=4;spacingRight=4;overflow=hidden;points=[[0,0.5],[1,0.5]];portConstraint=eastwest;rotatable=0;whiteSpace=wrap;html=1;" parent="5aHIGrzVU5xn1-LQkvVe-114" vertex="1">
          <mxGeometry y="90" width="140" height="30" as="geometry" />
        </mxCell>
        <mxCell id="5aHIGrzVU5xn1-LQkvVe-118" style="edgeStyle=orthogonalEdgeStyle;rounded=0;orthogonalLoop=1;jettySize=auto;html=1;curved=1;" parent="5aHIGrzVU5xn1-LQkvVe-124" source="cYqIVs3wfJdpbzvoYO5g-149" target="5aHIGrzVU5xn1-LQkvVe-114" edge="1">
          <mxGeometry relative="1" as="geometry" />
        </mxCell>
        <mxCell id="5aHIGrzVU5xn1-LQkvVe-119" value="AdministrativeGender" style="swimlane;fontStyle=0;childLayout=stackLayout;horizontal=1;startSize=30;horizontalStack=0;resizeParent=1;resizeParentMax=0;resizeLast=0;collapsible=1;marginBottom=0;whiteSpace=wrap;html=1;fillColor=#d5e8d4;strokeColor=#82b366;" parent="5aHIGrzVU5xn1-LQkvVe-124" vertex="1">
          <mxGeometry x="510" y="95" width="140" height="120" as="geometry" />
        </mxCell>
        <mxCell id="5aHIGrzVU5xn1-LQkvVe-120" value="code: string [0...1]" style="text;strokeColor=none;fillColor=none;align=left;verticalAlign=middle;spacingLeft=4;spacingRight=4;overflow=hidden;points=[[0,0.5],[1,0.5]];portConstraint=eastwest;rotatable=0;whiteSpace=wrap;html=1;" parent="5aHIGrzVU5xn1-LQkvVe-119" vertex="1">
          <mxGeometry y="30" width="140" height="30" as="geometry" />
        </mxCell>
        <mxCell id="5aHIGrzVU5xn1-LQkvVe-121" value="display:&amp;nbsp;string [0...1]" style="text;strokeColor=none;fillColor=none;align=left;verticalAlign=middle;spacingLeft=4;spacingRight=4;overflow=hidden;points=[[0,0.5],[1,0.5]];portConstraint=eastwest;rotatable=0;whiteSpace=wrap;html=1;" parent="5aHIGrzVU5xn1-LQkvVe-119" vertex="1">
          <mxGeometry y="60" width="140" height="30" as="geometry" />
        </mxCell>
        <mxCell id="5aHIGrzVU5xn1-LQkvVe-122" value="definition:&amp;nbsp;string [0...1]" style="text;strokeColor=none;fillColor=none;align=left;verticalAlign=middle;spacingLeft=4;spacingRight=4;overflow=hidden;points=[[0,0.5],[1,0.5]];portConstraint=eastwest;rotatable=0;whiteSpace=wrap;html=1;" parent="5aHIGrzVU5xn1-LQkvVe-119" vertex="1">
          <mxGeometry y="90" width="140" height="30" as="geometry" />
        </mxCell>
        <mxCell id="5aHIGrzVU5xn1-LQkvVe-123" style="edgeStyle=orthogonalEdgeStyle;curved=1;rounded=0;orthogonalLoop=1;jettySize=auto;html=1;" parent="5aHIGrzVU5xn1-LQkvVe-124" source="5aHIGrzVU5xn1-LQkvVe-107" target="5aHIGrzVU5xn1-LQkvVe-119" edge="1">
          <mxGeometry relative="1" as="geometry" />
        </mxCell>
        <mxCell id="ZBmOmXvxWi1l-vRK5AxD-5" style="edgeStyle=orthogonalEdgeStyle;curved=1;rounded=0;orthogonalLoop=1;jettySize=auto;html=1;" parent="WIyWlLk6GJQsqaUBKTNV-1" source="cYqIVs3wfJdpbzvoYO5g-149" target="ZBmOmXvxWi1l-vRK5AxD-0" edge="1">
          <mxGeometry relative="1" as="geometry">
            <Array as="points">
              <mxPoint x="1115" y="460" />
            </Array>
          </mxGeometry>
        </mxCell>
        <mxCell id="ZBmOmXvxWi1l-vRK5AxD-8" value="Продукт питания" style="swimlane;whiteSpace=wrap;html=1;fillColor=#ffcccc;strokeColor=#36393d;" parent="WIyWlLk6GJQsqaUBKTNV-1" vertex="1">
          <mxGeometry x="827" y="380" width="1643" height="1290" as="geometry" />
        </mxCell>
        <mxCell id="ZBmOmXvxWi1l-vRK5AxD-14" style="edgeStyle=orthogonalEdgeStyle;curved=1;rounded=0;orthogonalLoop=1;jettySize=auto;html=1;endArrow=classic;endFill=1;" parent="ZBmOmXvxWi1l-vRK5AxD-8" source="ZBmOmXvxWi1l-vRK5AxD-0" target="ZBmOmXvxWi1l-vRK5AxD-9" edge="1">
          <mxGeometry relative="1" as="geometry" />
        </mxCell>
        <mxCell id="ZBmOmXvxWi1l-vRK5AxD-96" style="edgeStyle=orthogonalEdgeStyle;curved=1;rounded=0;orthogonalLoop=1;jettySize=auto;html=1;strokeWidth=1;startArrow=none;startFill=0;endArrow=classic;endFill=1;" parent="ZBmOmXvxWi1l-vRK5AxD-8" source="ZBmOmXvxWi1l-vRK5AxD-0" target="ZBmOmXvxWi1l-vRK5AxD-15" edge="1">
          <mxGeometry relative="1" as="geometry" />
        </mxCell>
        <mxCell id="EqAeNS77DgcHfNquhwQE-11" style="edgeStyle=orthogonalEdgeStyle;rounded=0;orthogonalLoop=1;jettySize=auto;html=1;curved=1;endArrow=diamondThin;endFill=1;endSize=12;startSize=12;" edge="1" parent="ZBmOmXvxWi1l-vRK5AxD-8" source="ZBmOmXvxWi1l-vRK5AxD-0" target="EqAeNS77DgcHfNquhwQE-0">
          <mxGeometry relative="1" as="geometry">
            <Array as="points">
              <mxPoint x="303" y="240" />
              <mxPoint x="303" y="495" />
            </Array>
          </mxGeometry>
        </mxCell>
        <mxCell id="EqAeNS77DgcHfNquhwQE-29" style="edgeStyle=orthogonalEdgeStyle;rounded=0;orthogonalLoop=1;jettySize=auto;html=1;curved=1;" edge="1" parent="ZBmOmXvxWi1l-vRK5AxD-8" source="ZBmOmXvxWi1l-vRK5AxD-0" target="EqAeNS77DgcHfNquhwQE-24">
          <mxGeometry relative="1" as="geometry">
            <Array as="points">
              <mxPoint x="603" y="320" />
              <mxPoint x="472" y="320" />
            </Array>
          </mxGeometry>
        </mxCell>
        <mxCell id="EqAeNS77DgcHfNquhwQE-64" style="edgeStyle=orthogonalEdgeStyle;rounded=0;orthogonalLoop=1;jettySize=auto;html=1;curved=1;" edge="1" parent="ZBmOmXvxWi1l-vRK5AxD-8" source="ZBmOmXvxWi1l-vRK5AxD-0" target="EqAeNS77DgcHfNquhwQE-59">
          <mxGeometry relative="1" as="geometry" />
        </mxCell>
        <mxCell id="ZBmOmXvxWi1l-vRK5AxD-0" value="FoodProduct" style="swimlane;fontStyle=0;childLayout=stackLayout;horizontal=1;startSize=30;horizontalStack=0;resizeParent=1;resizeParentMax=0;resizeLast=0;collapsible=1;marginBottom=0;whiteSpace=wrap;html=1;fillColor=#f8cecc;strokeColor=#b85450;" parent="ZBmOmXvxWi1l-vRK5AxD-8" vertex="1">
          <mxGeometry x="560" y="65" width="210" height="240" as="geometry" />
        </mxCell>
        <mxCell id="ZBmOmXvxWi1l-vRK5AxD-1" value="barcode: integer [0...1]" style="text;strokeColor=none;fillColor=none;align=left;verticalAlign=middle;spacingLeft=4;spacingRight=4;overflow=hidden;points=[[0,0.5],[1,0.5]];portConstraint=eastwest;rotatable=0;whiteSpace=wrap;html=1;" parent="ZBmOmXvxWi1l-vRK5AxD-0" vertex="1">
          <mxGeometry y="30" width="210" height="30" as="geometry" />
        </mxCell>
        <mxCell id="ZBmOmXvxWi1l-vRK5AxD-38" value="name: string [0...1]" style="text;strokeColor=none;fillColor=none;align=left;verticalAlign=middle;spacingLeft=4;spacingRight=4;overflow=hidden;points=[[0,0.5],[1,0.5]];portConstraint=eastwest;rotatable=0;whiteSpace=wrap;html=1;" parent="ZBmOmXvxWi1l-vRK5AxD-0" vertex="1">
          <mxGeometry y="60" width="210" height="30" as="geometry" />
        </mxCell>
        <mxCell id="EqAeNS77DgcHfNquhwQE-15" value="safetyLevel: Safety [0...1]" style="text;strokeColor=none;fillColor=none;align=left;verticalAlign=middle;spacingLeft=4;spacingRight=4;overflow=hidden;points=[[0,0.5],[1,0.5]];portConstraint=eastwest;rotatable=0;whiteSpace=wrap;html=1;" vertex="1" parent="ZBmOmXvxWi1l-vRK5AxD-0">
          <mxGeometry y="90" width="210" height="30" as="geometry" />
        </mxCell>
        <mxCell id="ZBmOmXvxWi1l-vRK5AxD-2" value="weight:&amp;nbsp;decimal [0...1]" style="text;strokeColor=none;fillColor=none;align=left;verticalAlign=middle;spacingLeft=4;spacingRight=4;overflow=hidden;points=[[0,0.5],[1,0.5]];portConstraint=eastwest;rotatable=0;whiteSpace=wrap;html=1;" parent="ZBmOmXvxWi1l-vRK5AxD-0" vertex="1">
          <mxGeometry y="120" width="210" height="30" as="geometry" />
        </mxCell>
        <mxCell id="ZBmOmXvxWi1l-vRK5AxD-3" value="macronutrient: Macronutrient [0...1]" style="text;strokeColor=none;fillColor=none;align=left;verticalAlign=middle;spacingLeft=4;spacingRight=4;overflow=hidden;points=[[0,0.5],[1,0.5]];portConstraint=eastwest;rotatable=0;whiteSpace=wrap;html=1;" parent="ZBmOmXvxWi1l-vRK5AxD-0" vertex="1">
          <mxGeometry y="150" width="210" height="30" as="geometry" />
        </mxCell>
        <mxCell id="ZBmOmXvxWi1l-vRK5AxD-97" value="micronutrient: Micronutrient [0...1]" style="text;strokeColor=none;fillColor=none;align=left;verticalAlign=middle;spacingLeft=4;spacingRight=4;overflow=hidden;points=[[0,0.5],[1,0.5]];portConstraint=eastwest;rotatable=0;whiteSpace=wrap;html=1;" parent="ZBmOmXvxWi1l-vRK5AxD-0" vertex="1">
          <mxGeometry y="180" width="210" height="30" as="geometry" />
        </mxCell>
        <mxCell id="EqAeNS77DgcHfNquhwQE-63" value="type: Category [0...1]" style="text;strokeColor=none;fillColor=none;align=left;verticalAlign=middle;spacingLeft=4;spacingRight=4;overflow=hidden;points=[[0,0.5],[1,0.5]];portConstraint=eastwest;rotatable=0;" vertex="1" parent="ZBmOmXvxWi1l-vRK5AxD-0">
          <mxGeometry y="210" width="210" height="30" as="geometry" />
        </mxCell>
        <mxCell id="EqAeNS77DgcHfNquhwQE-56" style="edgeStyle=orthogonalEdgeStyle;rounded=0;orthogonalLoop=1;jettySize=auto;html=1;curved=1;" edge="1" parent="ZBmOmXvxWi1l-vRK5AxD-8" source="ZBmOmXvxWi1l-vRK5AxD-9" target="EqAeNS77DgcHfNquhwQE-33">
          <mxGeometry relative="1" as="geometry" />
        </mxCell>
        <mxCell id="EqAeNS77DgcHfNquhwQE-57" style="edgeStyle=orthogonalEdgeStyle;rounded=0;orthogonalLoop=1;jettySize=auto;html=1;elbow=vertical;curved=1;" edge="1" parent="ZBmOmXvxWi1l-vRK5AxD-8" source="ZBmOmXvxWi1l-vRK5AxD-9" target="EqAeNS77DgcHfNquhwQE-43">
          <mxGeometry relative="1" as="geometry">
            <Array as="points">
              <mxPoint x="983" y="275" />
            </Array>
          </mxGeometry>
        </mxCell>
        <mxCell id="EqAeNS77DgcHfNquhwQE-58" style="edgeStyle=orthogonalEdgeStyle;rounded=0;orthogonalLoop=1;jettySize=auto;html=1;curved=1;" edge="1" parent="ZBmOmXvxWi1l-vRK5AxD-8" source="ZBmOmXvxWi1l-vRK5AxD-9" target="EqAeNS77DgcHfNquhwQE-52">
          <mxGeometry relative="1" as="geometry">
            <Array as="points">
              <mxPoint x="933" y="420" />
            </Array>
          </mxGeometry>
        </mxCell>
        <mxCell id="ZBmOmXvxWi1l-vRK5AxD-9" value="Macronutrient" style="swimlane;fontStyle=0;childLayout=stackLayout;horizontal=1;startSize=30;horizontalStack=0;resizeParent=1;resizeParentMax=0;resizeLast=0;collapsible=1;marginBottom=0;whiteSpace=wrap;html=1;fillColor=#dae8fc;strokeColor=#6c8ebf;" parent="ZBmOmXvxWi1l-vRK5AxD-8" vertex="1">
          <mxGeometry x="840" y="65" width="185" height="180" as="geometry" />
        </mxCell>
        <mxCell id="EqAeNS77DgcHfNquhwQE-19" value="barcode: integer [0...1]" style="text;strokeColor=none;fillColor=none;align=left;verticalAlign=middle;spacingLeft=4;spacingRight=4;overflow=hidden;points=[[0,0.5],[1,0.5]];portConstraint=eastwest;rotatable=0;whiteSpace=wrap;html=1;" vertex="1" parent="ZBmOmXvxWi1l-vRK5AxD-9">
          <mxGeometry y="30" width="185" height="30" as="geometry" />
        </mxCell>
        <mxCell id="cYqIVs3wfJdpbzvoYO5g-104" value="proteins: decimal [0...1]" style="text;strokeColor=none;fillColor=none;align=left;verticalAlign=middle;spacingLeft=4;spacingRight=4;overflow=hidden;points=[[0,0.5],[1,0.5]];portConstraint=eastwest;rotatable=0;" parent="ZBmOmXvxWi1l-vRK5AxD-9" vertex="1">
          <mxGeometry y="60" width="185" height="30" as="geometry" />
        </mxCell>
        <mxCell id="cYqIVs3wfJdpbzvoYO5g-105" value="fats: decimal [0...1]" style="text;strokeColor=none;fillColor=none;align=left;verticalAlign=middle;spacingLeft=4;spacingRight=4;overflow=hidden;points=[[0,0.5],[1,0.5]];portConstraint=eastwest;rotatable=0;" parent="ZBmOmXvxWi1l-vRK5AxD-9" vertex="1">
          <mxGeometry y="90" width="185" height="30" as="geometry" />
        </mxCell>
        <mxCell id="cYqIVs3wfJdpbzvoYO5g-106" value="carbohydrates: decimal [0...1]" style="text;strokeColor=none;fillColor=none;align=left;verticalAlign=middle;spacingLeft=4;spacingRight=4;overflow=hidden;points=[[0,0.5],[1,0.5]];portConstraint=eastwest;rotatable=0;" parent="ZBmOmXvxWi1l-vRK5AxD-9" vertex="1">
          <mxGeometry y="120" width="185" height="30" as="geometry" />
        </mxCell>
        <mxCell id="ZBmOmXvxWi1l-vRK5AxD-30" value="cellulose: decimal [0...1]" style="text;strokeColor=none;fillColor=none;align=left;verticalAlign=middle;spacingLeft=4;spacingRight=4;overflow=hidden;points=[[0,0.5],[1,0.5]];portConstraint=eastwest;rotatable=0;" parent="ZBmOmXvxWi1l-vRK5AxD-9" vertex="1">
          <mxGeometry y="150" width="185" height="30" as="geometry" />
        </mxCell>
        <mxCell id="EqAeNS77DgcHfNquhwQE-14" style="edgeStyle=orthogonalEdgeStyle;rounded=0;orthogonalLoop=1;jettySize=auto;html=1;endArrow=none;endFill=0;startArrow=block;startFill=1;curved=1;" edge="1" parent="ZBmOmXvxWi1l-vRK5AxD-8" source="ZBmOmXvxWi1l-vRK5AxD-20" target="ZBmOmXvxWi1l-vRK5AxD-0">
          <mxGeometry relative="1" as="geometry" />
        </mxCell>
        <mxCell id="ZBmOmXvxWi1l-vRK5AxD-20" value="Safety" style="swimlane;fontStyle=0;childLayout=stackLayout;horizontal=1;startSize=30;horizontalStack=0;resizeParent=1;resizeParentMax=0;resizeLast=0;collapsible=1;marginBottom=0;whiteSpace=wrap;html=1;fillColor=#e6d0de;gradientColor=#d5739d;strokeColor=#996185;" parent="ZBmOmXvxWi1l-vRK5AxD-8" vertex="1">
          <mxGeometry x="150" y="95" width="177" height="120" as="geometry" />
        </mxCell>
        <mxCell id="EqAeNS77DgcHfNquhwQE-20" value="barcode: integer [0...1]" style="text;strokeColor=none;fillColor=none;align=left;verticalAlign=middle;spacingLeft=4;spacingRight=4;overflow=hidden;points=[[0,0.5],[1,0.5]];portConstraint=eastwest;rotatable=0;whiteSpace=wrap;html=1;" vertex="1" parent="ZBmOmXvxWi1l-vRK5AxD-20">
          <mxGeometry y="30" width="177" height="30" as="geometry" />
        </mxCell>
        <mxCell id="ZBmOmXvxWi1l-vRK5AxD-22" value="safetyLevel:&amp;nbsp;decimal [0...1]" style="text;strokeColor=none;fillColor=none;align=left;verticalAlign=middle;spacingLeft=4;spacingRight=4;overflow=hidden;points=[[0,0.5],[1,0.5]];portConstraint=eastwest;rotatable=0;whiteSpace=wrap;html=1;" parent="ZBmOmXvxWi1l-vRK5AxD-20" vertex="1">
          <mxGeometry y="60" width="177" height="30" as="geometry" />
        </mxCell>
        <mxCell id="EqAeNS77DgcHfNquhwQE-12" value="danger:&amp;nbsp;FoodAdditive [0...*]" style="text;strokeColor=none;fillColor=none;align=left;verticalAlign=middle;spacingLeft=4;spacingRight=4;overflow=hidden;points=[[0,0.5],[1,0.5]];portConstraint=eastwest;rotatable=0;whiteSpace=wrap;html=1;" vertex="1" parent="ZBmOmXvxWi1l-vRK5AxD-20">
          <mxGeometry y="90" width="177" height="30" as="geometry" />
        </mxCell>
        <mxCell id="ZBmOmXvxWi1l-vRK5AxD-23" value="Микронутриенты" style="swimlane;whiteSpace=wrap;html=1;fillColor=#e1d5e7;strokeColor=#9673a6;" parent="ZBmOmXvxWi1l-vRK5AxD-8" vertex="1">
          <mxGeometry x="10" y="680" width="1180" height="600" as="geometry" />
        </mxCell>
        <mxCell id="ZBmOmXvxWi1l-vRK5AxD-93" style="edgeStyle=orthogonalEdgeStyle;curved=1;rounded=0;orthogonalLoop=1;jettySize=auto;html=1;strokeWidth=1;startArrow=none;startFill=0;endArrow=classic;endFill=1;" parent="ZBmOmXvxWi1l-vRK5AxD-23" source="ZBmOmXvxWi1l-vRK5AxD-15" target="ZBmOmXvxWi1l-vRK5AxD-82" edge="1">
          <mxGeometry relative="1" as="geometry" />
        </mxCell>
        <mxCell id="ZBmOmXvxWi1l-vRK5AxD-94" style="edgeStyle=orthogonalEdgeStyle;curved=1;rounded=0;orthogonalLoop=1;jettySize=auto;html=1;strokeWidth=1;startArrow=none;startFill=0;endArrow=classic;endFill=1;" parent="ZBmOmXvxWi1l-vRK5AxD-23" source="ZBmOmXvxWi1l-vRK5AxD-15" target="ZBmOmXvxWi1l-vRK5AxD-78" edge="1">
          <mxGeometry relative="1" as="geometry" />
        </mxCell>
        <mxCell id="ZBmOmXvxWi1l-vRK5AxD-15" value="Micronutrient" style="swimlane;fontStyle=0;childLayout=stackLayout;horizontal=1;startSize=30;horizontalStack=0;resizeParent=1;resizeParentMax=0;resizeLast=0;collapsible=1;marginBottom=0;whiteSpace=wrap;html=1;fillColor=#e1d5e7;strokeColor=#9673a6;" parent="ZBmOmXvxWi1l-vRK5AxD-23" vertex="1">
          <mxGeometry x="530" y="50" width="210" height="120" as="geometry" />
        </mxCell>
        <mxCell id="EqAeNS77DgcHfNquhwQE-21" value="barcode: integer [0...1]" style="text;strokeColor=none;fillColor=none;align=left;verticalAlign=middle;spacingLeft=4;spacingRight=4;overflow=hidden;points=[[0,0.5],[1,0.5]];portConstraint=eastwest;rotatable=0;whiteSpace=wrap;html=1;" vertex="1" parent="ZBmOmXvxWi1l-vRK5AxD-15">
          <mxGeometry y="30" width="210" height="30" as="geometry" />
        </mxCell>
        <mxCell id="ZBmOmXvxWi1l-vRK5AxD-76" value="mineral:&amp;nbsp;MineralInProduct&amp;nbsp;[0...1]" style="text;strokeColor=none;fillColor=none;align=left;verticalAlign=middle;spacingLeft=4;spacingRight=4;overflow=hidden;points=[[0,0.5],[1,0.5]];portConstraint=eastwest;rotatable=0;whiteSpace=wrap;html=1;" parent="ZBmOmXvxWi1l-vRK5AxD-15" vertex="1">
          <mxGeometry y="60" width="210" height="30" as="geometry" />
        </mxCell>
        <mxCell id="ZBmOmXvxWi1l-vRK5AxD-77" value="vitamin:&amp;nbsp;VitaminInProduct&amp;nbsp;[0...1]" style="text;strokeColor=none;fillColor=none;align=left;verticalAlign=middle;spacingLeft=4;spacingRight=4;overflow=hidden;points=[[0,0.5],[1,0.5]];portConstraint=eastwest;rotatable=0;whiteSpace=wrap;html=1;" parent="ZBmOmXvxWi1l-vRK5AxD-15" vertex="1">
          <mxGeometry y="90" width="210" height="30" as="geometry" />
        </mxCell>
        <mxCell id="ZBmOmXvxWi1l-vRK5AxD-48" value="Минералы" style="swimlane;whiteSpace=wrap;html=1;fillColor=#fff2cc;strokeColor=#d6b656;" parent="ZBmOmXvxWi1l-vRK5AxD-23" vertex="1">
          <mxGeometry x="20" y="270" width="550" height="320" as="geometry" />
        </mxCell>
        <mxCell id="ZBmOmXvxWi1l-vRK5AxD-75" style="edgeStyle=orthogonalEdgeStyle;curved=1;rounded=0;orthogonalLoop=1;jettySize=auto;html=1;endArrow=classic;endFill=1;" parent="ZBmOmXvxWi1l-vRK5AxD-48" source="ZBmOmXvxWi1l-vRK5AxD-49" target="ZBmOmXvxWi1l-vRK5AxD-63" edge="1">
          <mxGeometry relative="1" as="geometry" />
        </mxCell>
        <mxCell id="ZBmOmXvxWi1l-vRK5AxD-49" value="Mineral" style="swimlane;fontStyle=0;childLayout=stackLayout;horizontal=1;startSize=30;horizontalStack=0;resizeParent=1;resizeParentMax=0;resizeLast=0;collapsible=1;marginBottom=0;whiteSpace=wrap;html=1;fillColor=#fff2cc;strokeColor=#d6b656;" parent="ZBmOmXvxWi1l-vRK5AxD-48" vertex="1">
          <mxGeometry x="15" y="30" width="235" height="270" as="geometry" />
        </mxCell>
        <mxCell id="ZBmOmXvxWi1l-vRK5AxD-50" value="name: string [0...1]" style="text;strokeColor=none;fillColor=none;align=left;verticalAlign=middle;spacingLeft=4;spacingRight=4;overflow=hidden;points=[[0,0.5],[1,0.5]];portConstraint=eastwest;rotatable=0;whiteSpace=wrap;html=1;" parent="ZBmOmXvxWi1l-vRK5AxD-49" vertex="1">
          <mxGeometry y="30" width="235" height="30" as="geometry" />
        </mxCell>
        <mxCell id="ZBmOmXvxWi1l-vRK5AxD-52" value="typeByLevel:&amp;nbsp;VitaminTypeByLevel&amp;nbsp;[0...1]" style="text;strokeColor=none;fillColor=none;align=left;verticalAlign=middle;spacingLeft=4;spacingRight=4;overflow=hidden;points=[[0,0.5],[1,0.5]];portConstraint=eastwest;rotatable=0;whiteSpace=wrap;html=1;" parent="ZBmOmXvxWi1l-vRK5AxD-49" vertex="1">
          <mxGeometry y="60" width="235" height="30" as="geometry" />
        </mxCell>
        <mxCell id="ZBmOmXvxWi1l-vRK5AxD-87" value="minRate:&amp;nbsp;decimal&amp;nbsp;[0...1]" style="text;strokeColor=none;fillColor=none;align=left;verticalAlign=middle;spacingLeft=4;spacingRight=4;overflow=hidden;points=[[0,0.5],[1,0.5]];portConstraint=eastwest;rotatable=0;whiteSpace=wrap;html=1;" parent="ZBmOmXvxWi1l-vRK5AxD-49" vertex="1">
          <mxGeometry y="90" width="235" height="30" as="geometry" />
        </mxCell>
        <mxCell id="ZBmOmXvxWi1l-vRK5AxD-88" value="maxRate:&amp;nbsp;decimal&amp;nbsp;[0...1]" style="text;strokeColor=none;fillColor=none;align=left;verticalAlign=middle;spacingLeft=4;spacingRight=4;overflow=hidden;points=[[0,0.5],[1,0.5]];portConstraint=eastwest;rotatable=0;whiteSpace=wrap;html=1;" parent="ZBmOmXvxWi1l-vRK5AxD-49" vertex="1">
          <mxGeometry y="120" width="235" height="30" as="geometry" />
        </mxCell>
        <mxCell id="ZBmOmXvxWi1l-vRK5AxD-74" value="typeByRole:&amp;nbsp;VitaminTypeByRole&amp;nbsp;[0...1]" style="text;strokeColor=none;fillColor=none;align=left;verticalAlign=middle;spacingLeft=4;spacingRight=4;overflow=hidden;points=[[0,0.5],[1,0.5]];portConstraint=eastwest;rotatable=0;whiteSpace=wrap;html=1;" parent="ZBmOmXvxWi1l-vRK5AxD-49" vertex="1">
          <mxGeometry y="150" width="235" height="30" as="geometry" />
        </mxCell>
        <mxCell id="ZBmOmXvxWi1l-vRK5AxD-53" value="definition: string [0...1]" style="text;strokeColor=none;fillColor=none;align=left;verticalAlign=middle;spacingLeft=4;spacingRight=4;overflow=hidden;points=[[0,0.5],[1,0.5]];portConstraint=eastwest;rotatable=0;whiteSpace=wrap;html=1;" parent="ZBmOmXvxWi1l-vRK5AxD-49" vertex="1">
          <mxGeometry y="180" width="235" height="30" as="geometry" />
        </mxCell>
        <mxCell id="ZBmOmXvxWi1l-vRK5AxD-54" value="source: string [0...1]" style="text;strokeColor=none;fillColor=none;align=left;verticalAlign=middle;spacingLeft=4;spacingRight=4;overflow=hidden;points=[[0,0.5],[1,0.5]];portConstraint=eastwest;rotatable=0;whiteSpace=wrap;html=1;" parent="ZBmOmXvxWi1l-vRK5AxD-49" vertex="1">
          <mxGeometry y="210" width="235" height="30" as="geometry" />
        </mxCell>
        <mxCell id="ZBmOmXvxWi1l-vRK5AxD-55" value="reproducible: boolean [0...1]" style="text;strokeColor=none;fillColor=none;align=left;verticalAlign=middle;spacingLeft=4;spacingRight=4;overflow=hidden;points=[[0,0.5],[1,0.5]];portConstraint=eastwest;rotatable=0;whiteSpace=wrap;html=1;" parent="ZBmOmXvxWi1l-vRK5AxD-49" vertex="1">
          <mxGeometry y="240" width="235" height="30" as="geometry" />
        </mxCell>
        <mxCell id="ZBmOmXvxWi1l-vRK5AxD-56" value="VitaminTypeByLevel" style="swimlane;fontStyle=0;childLayout=stackLayout;horizontal=1;startSize=30;horizontalStack=0;resizeParent=1;resizeParentMax=0;resizeLast=0;collapsible=1;marginBottom=0;whiteSpace=wrap;html=1;fillColor=#fff2cc;strokeColor=#d6b656;" parent="ZBmOmXvxWi1l-vRK5AxD-48" vertex="1">
          <mxGeometry x="330" y="30" width="165" height="90" as="geometry" />
        </mxCell>
        <mxCell id="ZBmOmXvxWi1l-vRK5AxD-57" value="name: string [0...1]" style="text;strokeColor=none;fillColor=none;align=left;verticalAlign=middle;spacingLeft=4;spacingRight=4;overflow=hidden;points=[[0,0.5],[1,0.5]];portConstraint=eastwest;rotatable=0;whiteSpace=wrap;html=1;" parent="ZBmOmXvxWi1l-vRK5AxD-56" vertex="1">
          <mxGeometry y="30" width="165" height="30" as="geometry" />
        </mxCell>
        <mxCell id="ZBmOmXvxWi1l-vRK5AxD-58" value="definition: string [0...1]" style="text;strokeColor=none;fillColor=none;align=left;verticalAlign=middle;spacingLeft=4;spacingRight=4;overflow=hidden;points=[[0,0.5],[1,0.5]];portConstraint=eastwest;rotatable=0;whiteSpace=wrap;html=1;" parent="ZBmOmXvxWi1l-vRK5AxD-56" vertex="1">
          <mxGeometry y="60" width="165" height="30" as="geometry" />
        </mxCell>
        <mxCell id="ZBmOmXvxWi1l-vRK5AxD-59" style="edgeStyle=orthogonalEdgeStyle;curved=1;rounded=0;orthogonalLoop=1;jettySize=auto;html=1;endArrow=classic;endFill=1;" parent="ZBmOmXvxWi1l-vRK5AxD-48" source="ZBmOmXvxWi1l-vRK5AxD-52" target="ZBmOmXvxWi1l-vRK5AxD-56" edge="1">
          <mxGeometry relative="1" as="geometry" />
        </mxCell>
        <mxCell id="ZBmOmXvxWi1l-vRK5AxD-63" value="VitaminTypeByRole" style="swimlane;fontStyle=0;childLayout=stackLayout;horizontal=1;startSize=30;horizontalStack=0;resizeParent=1;resizeParentMax=0;resizeLast=0;collapsible=1;marginBottom=0;whiteSpace=wrap;html=1;fillColor=#fff2cc;strokeColor=#d6b656;" parent="ZBmOmXvxWi1l-vRK5AxD-48" vertex="1">
          <mxGeometry x="330" y="150" width="165" height="90" as="geometry" />
        </mxCell>
        <mxCell id="ZBmOmXvxWi1l-vRK5AxD-64" value="name: string [0...1]" style="text;strokeColor=none;fillColor=none;align=left;verticalAlign=middle;spacingLeft=4;spacingRight=4;overflow=hidden;points=[[0,0.5],[1,0.5]];portConstraint=eastwest;rotatable=0;whiteSpace=wrap;html=1;" parent="ZBmOmXvxWi1l-vRK5AxD-63" vertex="1">
          <mxGeometry y="30" width="165" height="30" as="geometry" />
        </mxCell>
        <mxCell id="ZBmOmXvxWi1l-vRK5AxD-67" value="definition: string [0...1]" style="text;strokeColor=none;fillColor=none;align=left;verticalAlign=middle;spacingLeft=4;spacingRight=4;overflow=hidden;points=[[0,0.5],[1,0.5]];portConstraint=eastwest;rotatable=0;whiteSpace=wrap;html=1;" parent="ZBmOmXvxWi1l-vRK5AxD-63" vertex="1">
          <mxGeometry y="60" width="165" height="30" as="geometry" />
        </mxCell>
        <mxCell id="ZBmOmXvxWi1l-vRK5AxD-78" value="VitaminInProduct" style="swimlane;fontStyle=0;childLayout=stackLayout;horizontal=1;startSize=30;horizontalStack=0;resizeParent=1;resizeParentMax=0;resizeLast=0;collapsible=1;marginBottom=0;whiteSpace=wrap;html=1;fillColor=#ffe6cc;strokeColor=#d79b00;" parent="ZBmOmXvxWi1l-vRK5AxD-23" vertex="1">
          <mxGeometry x="835" y="100" width="140" height="120" as="geometry" />
        </mxCell>
        <mxCell id="EqAeNS77DgcHfNquhwQE-23" value="barcode: integer [0...1]" style="text;strokeColor=none;fillColor=none;align=left;verticalAlign=middle;spacingLeft=4;spacingRight=4;overflow=hidden;points=[[0,0.5],[1,0.5]];portConstraint=eastwest;rotatable=0;whiteSpace=wrap;html=1;" vertex="1" parent="ZBmOmXvxWi1l-vRK5AxD-78">
          <mxGeometry y="30" width="140" height="30" as="geometry" />
        </mxCell>
        <mxCell id="ZBmOmXvxWi1l-vRK5AxD-80" value="name:&amp;nbsp;Vitamin&amp;nbsp;[0...*]" style="text;strokeColor=none;fillColor=none;align=left;verticalAlign=middle;spacingLeft=4;spacingRight=4;overflow=hidden;points=[[0,0.5],[1,0.5]];portConstraint=eastwest;rotatable=0;whiteSpace=wrap;html=1;" parent="ZBmOmXvxWi1l-vRK5AxD-78" vertex="1">
          <mxGeometry y="60" width="140" height="30" as="geometry" />
        </mxCell>
        <mxCell id="ZBmOmXvxWi1l-vRK5AxD-81" value="weight:&amp;nbsp;decimal&amp;nbsp;[0...1]" style="text;strokeColor=none;fillColor=none;align=left;verticalAlign=middle;spacingLeft=4;spacingRight=4;overflow=hidden;points=[[0,0.5],[1,0.5]];portConstraint=eastwest;rotatable=0;whiteSpace=wrap;html=1;" parent="ZBmOmXvxWi1l-vRK5AxD-78" vertex="1">
          <mxGeometry y="90" width="140" height="30" as="geometry" />
        </mxCell>
        <mxCell id="ZBmOmXvxWi1l-vRK5AxD-82" value="MineralInProduct" style="swimlane;fontStyle=0;childLayout=stackLayout;horizontal=1;startSize=30;horizontalStack=0;resizeParent=1;resizeParentMax=0;resizeLast=0;collapsible=1;marginBottom=0;whiteSpace=wrap;html=1;fillColor=#fff2cc;strokeColor=#d6b656;" parent="ZBmOmXvxWi1l-vRK5AxD-23" vertex="1">
          <mxGeometry x="255" y="90" width="140" height="120" as="geometry" />
        </mxCell>
        <mxCell id="EqAeNS77DgcHfNquhwQE-22" value="barcode: integer [0...1]" style="text;strokeColor=none;fillColor=none;align=left;verticalAlign=middle;spacingLeft=4;spacingRight=4;overflow=hidden;points=[[0,0.5],[1,0.5]];portConstraint=eastwest;rotatable=0;whiteSpace=wrap;html=1;" vertex="1" parent="ZBmOmXvxWi1l-vRK5AxD-82">
          <mxGeometry y="30" width="140" height="30" as="geometry" />
        </mxCell>
        <mxCell id="ZBmOmXvxWi1l-vRK5AxD-86" value="name: Mineral [0...*]" style="text;strokeColor=none;fillColor=none;align=left;verticalAlign=middle;spacingLeft=4;spacingRight=4;overflow=hidden;points=[[0,0.5],[1,0.5]];portConstraint=eastwest;rotatable=0;whiteSpace=wrap;html=1;" parent="ZBmOmXvxWi1l-vRK5AxD-82" vertex="1">
          <mxGeometry y="60" width="140" height="30" as="geometry" />
        </mxCell>
        <mxCell id="ZBmOmXvxWi1l-vRK5AxD-85" value="weight:&amp;nbsp;decimal&amp;nbsp;[0...1]" style="text;strokeColor=none;fillColor=none;align=left;verticalAlign=middle;spacingLeft=4;spacingRight=4;overflow=hidden;points=[[0,0.5],[1,0.5]];portConstraint=eastwest;rotatable=0;whiteSpace=wrap;html=1;" parent="ZBmOmXvxWi1l-vRK5AxD-82" vertex="1">
          <mxGeometry y="90" width="140" height="30" as="geometry" />
        </mxCell>
        <mxCell id="ZBmOmXvxWi1l-vRK5AxD-32" value="Витамины" style="swimlane;whiteSpace=wrap;html=1;fillColor=#ffe6cc;strokeColor=#d79b00;" parent="ZBmOmXvxWi1l-vRK5AxD-23" vertex="1">
          <mxGeometry x="600" y="270" width="545" height="290" as="geometry" />
        </mxCell>
        <mxCell id="ZBmOmXvxWi1l-vRK5AxD-26" value="Vitamin" style="swimlane;fontStyle=0;childLayout=stackLayout;horizontal=1;startSize=30;horizontalStack=0;resizeParent=1;resizeParentMax=0;resizeLast=0;collapsible=1;marginBottom=0;whiteSpace=wrap;html=1;fillColor=#ffe6cc;strokeColor=#d79b00;" parent="ZBmOmXvxWi1l-vRK5AxD-32" vertex="1">
          <mxGeometry x="15" y="30" width="205" height="240" as="geometry" />
        </mxCell>
        <mxCell id="ZBmOmXvxWi1l-vRK5AxD-37" value="name: string [0...1]" style="text;strokeColor=none;fillColor=none;align=left;verticalAlign=middle;spacingLeft=4;spacingRight=4;overflow=hidden;points=[[0,0.5],[1,0.5]];portConstraint=eastwest;rotatable=0;whiteSpace=wrap;html=1;" parent="ZBmOmXvxWi1l-vRK5AxD-26" vertex="1">
          <mxGeometry y="30" width="205" height="30" as="geometry" />
        </mxCell>
        <mxCell id="ZBmOmXvxWi1l-vRK5AxD-42" value="type:&amp;nbsp;VitaminType&amp;nbsp;[0...1]" style="text;strokeColor=none;fillColor=none;align=left;verticalAlign=middle;spacingLeft=4;spacingRight=4;overflow=hidden;points=[[0,0.5],[1,0.5]];portConstraint=eastwest;rotatable=0;whiteSpace=wrap;html=1;" parent="ZBmOmXvxWi1l-vRK5AxD-26" vertex="1">
          <mxGeometry y="60" width="205" height="30" as="geometry" />
        </mxCell>
        <mxCell id="ZBmOmXvxWi1l-vRK5AxD-62" value="minRate:&amp;nbsp;decimal&amp;nbsp;[0...1]" style="text;strokeColor=none;fillColor=none;align=left;verticalAlign=middle;spacingLeft=4;spacingRight=4;overflow=hidden;points=[[0,0.5],[1,0.5]];portConstraint=eastwest;rotatable=0;whiteSpace=wrap;html=1;" parent="ZBmOmXvxWi1l-vRK5AxD-26" vertex="1">
          <mxGeometry y="90" width="205" height="30" as="geometry" />
        </mxCell>
        <mxCell id="ZBmOmXvxWi1l-vRK5AxD-61" value="maxRate:&amp;nbsp;decimal&amp;nbsp;[0...1]" style="text;strokeColor=none;fillColor=none;align=left;verticalAlign=middle;spacingLeft=4;spacingRight=4;overflow=hidden;points=[[0,0.5],[1,0.5]];portConstraint=eastwest;rotatable=0;whiteSpace=wrap;html=1;" parent="ZBmOmXvxWi1l-vRK5AxD-26" vertex="1">
          <mxGeometry y="120" width="205" height="30" as="geometry" />
        </mxCell>
        <mxCell id="ZBmOmXvxWi1l-vRK5AxD-45" value="definition: string [0...1]" style="text;strokeColor=none;fillColor=none;align=left;verticalAlign=middle;spacingLeft=4;spacingRight=4;overflow=hidden;points=[[0,0.5],[1,0.5]];portConstraint=eastwest;rotatable=0;whiteSpace=wrap;html=1;" parent="ZBmOmXvxWi1l-vRK5AxD-26" vertex="1">
          <mxGeometry y="150" width="205" height="30" as="geometry" />
        </mxCell>
        <mxCell id="ZBmOmXvxWi1l-vRK5AxD-46" value="source: string [0...1]" style="text;strokeColor=none;fillColor=none;align=left;verticalAlign=middle;spacingLeft=4;spacingRight=4;overflow=hidden;points=[[0,0.5],[1,0.5]];portConstraint=eastwest;rotatable=0;whiteSpace=wrap;html=1;" parent="ZBmOmXvxWi1l-vRK5AxD-26" vertex="1">
          <mxGeometry y="180" width="205" height="30" as="geometry" />
        </mxCell>
        <mxCell id="ZBmOmXvxWi1l-vRK5AxD-47" value="reproducible: boolean [0...1]" style="text;strokeColor=none;fillColor=none;align=left;verticalAlign=middle;spacingLeft=4;spacingRight=4;overflow=hidden;points=[[0,0.5],[1,0.5]];portConstraint=eastwest;rotatable=0;whiteSpace=wrap;html=1;" parent="ZBmOmXvxWi1l-vRK5AxD-26" vertex="1">
          <mxGeometry y="210" width="205" height="30" as="geometry" />
        </mxCell>
        <mxCell id="ZBmOmXvxWi1l-vRK5AxD-39" value="VitaminType" style="swimlane;fontStyle=0;childLayout=stackLayout;horizontal=1;startSize=30;horizontalStack=0;resizeParent=1;resizeParentMax=0;resizeLast=0;collapsible=1;marginBottom=0;whiteSpace=wrap;html=1;fillColor=#ffe6cc;strokeColor=#d79b00;" parent="ZBmOmXvxWi1l-vRK5AxD-32" vertex="1">
          <mxGeometry x="330" y="30" width="165" height="90" as="geometry" />
        </mxCell>
        <mxCell id="ZBmOmXvxWi1l-vRK5AxD-40" value="code: identifier [0...*]" style="text;strokeColor=none;fillColor=none;align=left;verticalAlign=middle;spacingLeft=4;spacingRight=4;overflow=hidden;points=[[0,0.5],[1,0.5]];portConstraint=eastwest;rotatable=0;whiteSpace=wrap;html=1;" parent="ZBmOmXvxWi1l-vRK5AxD-39" vertex="1">
          <mxGeometry y="30" width="165" height="30" as="geometry" />
        </mxCell>
        <mxCell id="ZBmOmXvxWi1l-vRK5AxD-41" value="definition: string [0...1]" style="text;strokeColor=none;fillColor=none;align=left;verticalAlign=middle;spacingLeft=4;spacingRight=4;overflow=hidden;points=[[0,0.5],[1,0.5]];portConstraint=eastwest;rotatable=0;whiteSpace=wrap;html=1;" parent="ZBmOmXvxWi1l-vRK5AxD-39" vertex="1">
          <mxGeometry y="60" width="165" height="30" as="geometry" />
        </mxCell>
        <mxCell id="ZBmOmXvxWi1l-vRK5AxD-44" style="edgeStyle=orthogonalEdgeStyle;curved=1;rounded=0;orthogonalLoop=1;jettySize=auto;html=1;endArrow=classic;endFill=1;" parent="ZBmOmXvxWi1l-vRK5AxD-32" source="ZBmOmXvxWi1l-vRK5AxD-42" target="ZBmOmXvxWi1l-vRK5AxD-39" edge="1">
          <mxGeometry relative="1" as="geometry" />
        </mxCell>
        <mxCell id="ZBmOmXvxWi1l-vRK5AxD-89" style="edgeStyle=orthogonalEdgeStyle;curved=1;rounded=0;orthogonalLoop=1;jettySize=auto;html=1;endArrow=none;endFill=0;startArrow=diamondThin;startFill=1;strokeWidth=1;endSize=12;startSize=12;" parent="ZBmOmXvxWi1l-vRK5AxD-23" source="ZBmOmXvxWi1l-vRK5AxD-49" target="ZBmOmXvxWi1l-vRK5AxD-82" edge="1">
          <mxGeometry relative="1" as="geometry" />
        </mxCell>
        <mxCell id="ZBmOmXvxWi1l-vRK5AxD-90" style="edgeStyle=orthogonalEdgeStyle;curved=1;rounded=0;orthogonalLoop=1;jettySize=auto;html=1;strokeWidth=1;startArrow=diamondThin;startFill=1;endArrow=none;endFill=0;endSize=12;startSize=12;" parent="ZBmOmXvxWi1l-vRK5AxD-23" source="ZBmOmXvxWi1l-vRK5AxD-26" target="ZBmOmXvxWi1l-vRK5AxD-78" edge="1">
          <mxGeometry relative="1" as="geometry">
            <Array as="points">
              <mxPoint x="718" y="240" />
              <mxPoint x="905" y="240" />
            </Array>
          </mxGeometry>
        </mxCell>
        <mxCell id="EqAeNS77DgcHfNquhwQE-0" value="FoodAdditive" style="swimlane;fontStyle=0;childLayout=stackLayout;horizontal=1;startSize=30;horizontalStack=0;resizeParent=1;resizeParentMax=0;resizeLast=0;collapsible=1;marginBottom=0;fillColor=#d5e8d4;strokeColor=#82b366;" vertex="1" parent="ZBmOmXvxWi1l-vRK5AxD-8">
          <mxGeometry x="10" y="330" width="140" height="330" as="geometry" />
        </mxCell>
        <mxCell id="EqAeNS77DgcHfNquhwQE-1" value="e_id: string [0...1]" style="text;strokeColor=none;fillColor=none;align=left;verticalAlign=middle;spacingLeft=4;spacingRight=4;overflow=hidden;points=[[0,0.5],[1,0.5]];portConstraint=eastwest;rotatable=0;" vertex="1" parent="EqAeNS77DgcHfNquhwQE-0">
          <mxGeometry y="30" width="140" height="30" as="geometry" />
        </mxCell>
        <mxCell id="EqAeNS77DgcHfNquhwQE-2" value="e_name: string [0...1]" style="text;strokeColor=none;fillColor=none;align=left;verticalAlign=middle;spacingLeft=4;spacingRight=4;overflow=hidden;points=[[0,0.5],[1,0.5]];portConstraint=eastwest;rotatable=0;" vertex="1" parent="EqAeNS77DgcHfNquhwQE-0">
          <mxGeometry y="60" width="140" height="30" as="geometry" />
        </mxCell>
        <mxCell id="EqAeNS77DgcHfNquhwQE-3" value="danger: integer [0...1]" style="text;strokeColor=none;fillColor=none;align=left;verticalAlign=middle;spacingLeft=4;spacingRight=4;overflow=hidden;points=[[0,0.5],[1,0.5]];portConstraint=eastwest;rotatable=0;" vertex="1" parent="EqAeNS77DgcHfNquhwQE-0">
          <mxGeometry y="90" width="140" height="30" as="geometry" />
        </mxCell>
        <mxCell id="EqAeNS77DgcHfNquhwQE-4" value="categori: string [0...1]" style="text;strokeColor=none;fillColor=none;align=left;verticalAlign=middle;spacingLeft=4;spacingRight=4;overflow=hidden;points=[[0,0.5],[1,0.5]];portConstraint=eastwest;rotatable=0;" vertex="1" parent="EqAeNS77DgcHfNquhwQE-0">
          <mxGeometry y="120" width="140" height="30" as="geometry" />
        </mxCell>
        <mxCell id="EqAeNS77DgcHfNquhwQE-5" value="origin: string [0...1]" style="text;strokeColor=none;fillColor=none;align=left;verticalAlign=middle;spacingLeft=4;spacingRight=4;overflow=hidden;points=[[0,0.5],[1,0.5]];portConstraint=eastwest;rotatable=0;" vertex="1" parent="EqAeNS77DgcHfNquhwQE-0">
          <mxGeometry y="150" width="140" height="30" as="geometry" />
        </mxCell>
        <mxCell id="EqAeNS77DgcHfNquhwQE-6" value="synonyms: string [0...1]" style="text;strokeColor=none;fillColor=none;align=left;verticalAlign=middle;spacingLeft=4;spacingRight=4;overflow=hidden;points=[[0,0.5],[1,0.5]];portConstraint=eastwest;rotatable=0;" vertex="1" parent="EqAeNS77DgcHfNquhwQE-0">
          <mxGeometry y="180" width="140" height="30" as="geometry" />
        </mxCell>
        <mxCell id="EqAeNS77DgcHfNquhwQE-7" value="benifit: string [0...1]" style="text;strokeColor=none;fillColor=none;align=left;verticalAlign=middle;spacingLeft=4;spacingRight=4;overflow=hidden;points=[[0,0.5],[1,0.5]];portConstraint=eastwest;rotatable=0;" vertex="1" parent="EqAeNS77DgcHfNquhwQE-0">
          <mxGeometry y="210" width="140" height="30" as="geometry" />
        </mxCell>
        <mxCell id="EqAeNS77DgcHfNquhwQE-8" value="harm: string [0...1]" style="text;strokeColor=none;fillColor=none;align=left;verticalAlign=middle;spacingLeft=4;spacingRight=4;overflow=hidden;points=[[0,0.5],[1,0.5]];portConstraint=eastwest;rotatable=0;" vertex="1" parent="EqAeNS77DgcHfNquhwQE-0">
          <mxGeometry y="240" width="140" height="30" as="geometry" />
        </mxCell>
        <mxCell id="EqAeNS77DgcHfNquhwQE-9" value="legislation: string [0...1]" style="text;strokeColor=none;fillColor=none;align=left;verticalAlign=middle;spacingLeft=4;spacingRight=4;overflow=hidden;points=[[0,0.5],[1,0.5]];portConstraint=eastwest;rotatable=0;" vertex="1" parent="EqAeNS77DgcHfNquhwQE-0">
          <mxGeometry y="270" width="140" height="30" as="geometry" />
        </mxCell>
        <mxCell id="EqAeNS77DgcHfNquhwQE-10" value="daily_rate: string [0...1]" style="text;strokeColor=none;fillColor=none;align=left;verticalAlign=middle;spacingLeft=4;spacingRight=4;overflow=hidden;points=[[0,0.5],[1,0.5]];portConstraint=eastwest;rotatable=0;" vertex="1" parent="EqAeNS77DgcHfNquhwQE-0">
          <mxGeometry y="300" width="140" height="30" as="geometry" />
        </mxCell>
        <mxCell id="EqAeNS77DgcHfNquhwQE-13" style="edgeStyle=orthogonalEdgeStyle;rounded=0;orthogonalLoop=1;jettySize=auto;html=1;endArrow=diamondThin;endFill=1;endSize=12;startSize=12;curved=1;" edge="1" parent="ZBmOmXvxWi1l-vRK5AxD-8" source="EqAeNS77DgcHfNquhwQE-12" target="EqAeNS77DgcHfNquhwQE-0">
          <mxGeometry relative="1" as="geometry">
            <Array as="points">
              <mxPoint x="83" y="275" />
              <mxPoint x="80" y="275" />
            </Array>
          </mxGeometry>
        </mxCell>
        <mxCell id="EqAeNS77DgcHfNquhwQE-24" value="EnergyValue" style="swimlane;fontStyle=0;childLayout=stackLayout;horizontal=1;startSize=30;horizontalStack=0;resizeParent=1;resizeParentMax=0;resizeLast=0;collapsible=1;marginBottom=0;whiteSpace=wrap;html=1;fillColor=#fff2cc;gradientColor=#ffd966;strokeColor=#d6b656;" vertex="1" parent="ZBmOmXvxWi1l-vRK5AxD-8">
          <mxGeometry x="383" y="370" width="177" height="120" as="geometry" />
        </mxCell>
        <mxCell id="EqAeNS77DgcHfNquhwQE-25" value="barcode: integer [0...1]" style="text;strokeColor=none;fillColor=none;align=left;verticalAlign=middle;spacingLeft=4;spacingRight=4;overflow=hidden;points=[[0,0.5],[1,0.5]];portConstraint=eastwest;rotatable=0;whiteSpace=wrap;html=1;" vertex="1" parent="EqAeNS77DgcHfNquhwQE-24">
          <mxGeometry y="30" width="177" height="30" as="geometry" />
        </mxCell>
        <mxCell id="cYqIVs3wfJdpbzvoYO5g-103" value="kcal: decimal [0...1]" style="text;strokeColor=none;fillColor=none;align=left;verticalAlign=middle;spacingLeft=4;spacingRight=4;overflow=hidden;points=[[0,0.5],[1,0.5]];portConstraint=eastwest;rotatable=0;" parent="EqAeNS77DgcHfNquhwQE-24" vertex="1">
          <mxGeometry y="60" width="177" height="30" as="geometry" />
        </mxCell>
        <mxCell id="EqAeNS77DgcHfNquhwQE-28" value="kJ: decimal [0...1]" style="text;strokeColor=none;fillColor=none;align=left;verticalAlign=middle;spacingLeft=4;spacingRight=4;overflow=hidden;points=[[0,0.5],[1,0.5]];portConstraint=eastwest;rotatable=0;" vertex="1" parent="EqAeNS77DgcHfNquhwQE-24">
          <mxGeometry y="90" width="177" height="30" as="geometry" />
        </mxCell>
        <mxCell id="EqAeNS77DgcHfNquhwQE-33" value="Protein" style="swimlane;fontStyle=0;childLayout=stackLayout;horizontal=1;startSize=30;horizontalStack=0;resizeParent=1;resizeParentMax=0;resizeLast=0;collapsible=1;marginBottom=0;whiteSpace=wrap;html=1;fillColor=#dae8fc;strokeColor=#6c8ebf;" vertex="1" parent="ZBmOmXvxWi1l-vRK5AxD-8">
          <mxGeometry x="1183" y="60" width="185" height="120" as="geometry" />
        </mxCell>
        <mxCell id="ZBmOmXvxWi1l-vRK5AxD-7" value="id: identifier [0...*]" style="text;strokeColor=none;fillColor=none;align=left;verticalAlign=middle;spacingLeft=4;spacingRight=4;overflow=hidden;points=[[0,0.5],[1,0.5]];portConstraint=eastwest;rotatable=0;whiteSpace=wrap;html=1;" parent="EqAeNS77DgcHfNquhwQE-33" vertex="1">
          <mxGeometry y="30" width="185" height="30" as="geometry" />
        </mxCell>
        <mxCell id="EqAeNS77DgcHfNquhwQE-42" value="originType: string [0...1]" style="text;strokeColor=none;fillColor=none;align=left;verticalAlign=middle;spacingLeft=4;spacingRight=4;overflow=hidden;points=[[0,0.5],[1,0.5]];portConstraint=eastwest;rotatable=0;" vertex="1" parent="EqAeNS77DgcHfNquhwQE-33">
          <mxGeometry y="60" width="185" height="30" as="geometry" />
        </mxCell>
        <mxCell id="EqAeNS77DgcHfNquhwQE-38" value="definition: string [0...1]" style="text;strokeColor=none;fillColor=none;align=left;verticalAlign=middle;spacingLeft=4;spacingRight=4;overflow=hidden;points=[[0,0.5],[1,0.5]];portConstraint=eastwest;rotatable=0;" vertex="1" parent="EqAeNS77DgcHfNquhwQE-33">
          <mxGeometry y="90" width="185" height="30" as="geometry" />
        </mxCell>
        <mxCell id="EqAeNS77DgcHfNquhwQE-43" value="Carbohydrate" style="swimlane;fontStyle=0;childLayout=stackLayout;horizontal=1;startSize=30;horizontalStack=0;resizeParent=1;resizeParentMax=0;resizeLast=0;collapsible=1;marginBottom=0;whiteSpace=wrap;html=1;fillColor=#dae8fc;strokeColor=#6c8ebf;" vertex="1" parent="ZBmOmXvxWi1l-vRK5AxD-8">
          <mxGeometry x="1183" y="215" width="185" height="120" as="geometry" />
        </mxCell>
        <mxCell id="EqAeNS77DgcHfNquhwQE-44" value="id: identifier [0...*]" style="text;strokeColor=none;fillColor=none;align=left;verticalAlign=middle;spacingLeft=4;spacingRight=4;overflow=hidden;points=[[0,0.5],[1,0.5]];portConstraint=eastwest;rotatable=0;whiteSpace=wrap;html=1;" vertex="1" parent="EqAeNS77DgcHfNquhwQE-43">
          <mxGeometry y="30" width="185" height="30" as="geometry" />
        </mxCell>
        <mxCell id="EqAeNS77DgcHfNquhwQE-45" value="group: string [0...1]" style="text;strokeColor=none;fillColor=none;align=left;verticalAlign=middle;spacingLeft=4;spacingRight=4;overflow=hidden;points=[[0,0.5],[1,0.5]];portConstraint=eastwest;rotatable=0;" vertex="1" parent="EqAeNS77DgcHfNquhwQE-43">
          <mxGeometry y="60" width="185" height="30" as="geometry" />
        </mxCell>
        <mxCell id="EqAeNS77DgcHfNquhwQE-46" value="definition: string [0...1]" style="text;strokeColor=none;fillColor=none;align=left;verticalAlign=middle;spacingLeft=4;spacingRight=4;overflow=hidden;points=[[0,0.5],[1,0.5]];portConstraint=eastwest;rotatable=0;" vertex="1" parent="EqAeNS77DgcHfNquhwQE-43">
          <mxGeometry y="90" width="185" height="30" as="geometry" />
        </mxCell>
        <mxCell id="EqAeNS77DgcHfNquhwQE-52" value="Fats" style="swimlane;fontStyle=0;childLayout=stackLayout;horizontal=1;startSize=30;horizontalStack=0;resizeParent=1;resizeParentMax=0;resizeLast=0;collapsible=1;marginBottom=0;whiteSpace=wrap;html=1;fillColor=#dae8fc;strokeColor=#6c8ebf;" vertex="1" parent="ZBmOmXvxWi1l-vRK5AxD-8">
          <mxGeometry x="1183" y="380" width="185" height="120" as="geometry" />
        </mxCell>
        <mxCell id="EqAeNS77DgcHfNquhwQE-53" value="id: identifier [0...*]" style="text;strokeColor=none;fillColor=none;align=left;verticalAlign=middle;spacingLeft=4;spacingRight=4;overflow=hidden;points=[[0,0.5],[1,0.5]];portConstraint=eastwest;rotatable=0;whiteSpace=wrap;html=1;" vertex="1" parent="EqAeNS77DgcHfNquhwQE-52">
          <mxGeometry y="30" width="185" height="30" as="geometry" />
        </mxCell>
        <mxCell id="EqAeNS77DgcHfNquhwQE-54" value="originType: string [0...1]" style="text;strokeColor=none;fillColor=none;align=left;verticalAlign=middle;spacingLeft=4;spacingRight=4;overflow=hidden;points=[[0,0.5],[1,0.5]];portConstraint=eastwest;rotatable=0;" vertex="1" parent="EqAeNS77DgcHfNquhwQE-52">
          <mxGeometry y="60" width="185" height="30" as="geometry" />
        </mxCell>
        <mxCell id="EqAeNS77DgcHfNquhwQE-55" value="definition: string [0...1]" style="text;strokeColor=none;fillColor=none;align=left;verticalAlign=middle;spacingLeft=4;spacingRight=4;overflow=hidden;points=[[0,0.5],[1,0.5]];portConstraint=eastwest;rotatable=0;" vertex="1" parent="EqAeNS77DgcHfNquhwQE-52">
          <mxGeometry y="90" width="185" height="30" as="geometry" />
        </mxCell>
        <mxCell id="EqAeNS77DgcHfNquhwQE-59" value="Category" style="swimlane;fontStyle=0;childLayout=stackLayout;horizontal=1;startSize=30;horizontalStack=0;resizeParent=1;resizeParentMax=0;resizeLast=0;collapsible=1;marginBottom=0;fillColor=#d5e8d4;strokeColor=#82b366;gradientColor=#97d077;" vertex="1" parent="ZBmOmXvxWi1l-vRK5AxD-8">
          <mxGeometry x="751.5" y="370" width="140" height="120" as="geometry" />
        </mxCell>
        <mxCell id="EqAeNS77DgcHfNquhwQE-65" value="barcode: integer [0...1]" style="text;strokeColor=none;fillColor=none;align=left;verticalAlign=middle;spacingLeft=4;spacingRight=4;overflow=hidden;points=[[0,0.5],[1,0.5]];portConstraint=eastwest;rotatable=0;whiteSpace=wrap;html=1;" vertex="1" parent="EqAeNS77DgcHfNquhwQE-59">
          <mxGeometry y="30" width="140" height="30" as="geometry" />
        </mxCell>
        <mxCell id="EqAeNS77DgcHfNquhwQE-61" value="category: string [0...1]" style="text;strokeColor=none;fillColor=none;align=left;verticalAlign=middle;spacingLeft=4;spacingRight=4;overflow=hidden;points=[[0,0.5],[1,0.5]];portConstraint=eastwest;rotatable=0;" vertex="1" parent="EqAeNS77DgcHfNquhwQE-59">
          <mxGeometry y="60" width="140" height="30" as="geometry" />
        </mxCell>
        <mxCell id="EqAeNS77DgcHfNquhwQE-62" value="type: string [0...1]" style="text;strokeColor=none;fillColor=none;align=left;verticalAlign=middle;spacingLeft=4;spacingRight=4;overflow=hidden;points=[[0,0.5],[1,0.5]];portConstraint=eastwest;rotatable=0;" vertex="1" parent="EqAeNS77DgcHfNquhwQE-59">
          <mxGeometry y="90" width="140" height="30" as="geometry" />
        </mxCell>
        <mxCell id="EqAeNS77DgcHfNquhwQE-66" value="ProductQuality" style="swimlane;fontStyle=0;childLayout=stackLayout;horizontal=1;startSize=30;horizontalStack=0;resizeParent=1;resizeParentMax=0;resizeLast=0;collapsible=1;marginBottom=0;whiteSpace=wrap;html=1;fillColor=#60a917;strokeColor=#2D7600;fontColor=#ffffff;" vertex="1" parent="ZBmOmXvxWi1l-vRK5AxD-8">
          <mxGeometry x="1283" y="570" width="177" height="120" as="geometry" />
        </mxCell>
        <mxCell id="EqAeNS77DgcHfNquhwQE-67" value="barcode: integer [0...1]" style="text;strokeColor=none;fillColor=none;align=left;verticalAlign=middle;spacingLeft=4;spacingRight=4;overflow=hidden;points=[[0,0.5],[1,0.5]];portConstraint=eastwest;rotatable=0;whiteSpace=wrap;html=1;" vertex="1" parent="EqAeNS77DgcHfNquhwQE-66">
          <mxGeometry y="30" width="177" height="30" as="geometry" />
        </mxCell>
        <mxCell id="EqAeNS77DgcHfNquhwQE-68" value="safetyLevel:&amp;nbsp;decimal [0...1]" style="text;strokeColor=none;fillColor=none;align=left;verticalAlign=middle;spacingLeft=4;spacingRight=4;overflow=hidden;points=[[0,0.5],[1,0.5]];portConstraint=eastwest;rotatable=0;whiteSpace=wrap;html=1;" vertex="1" parent="EqAeNS77DgcHfNquhwQE-66">
          <mxGeometry y="60" width="177" height="30" as="geometry" />
        </mxCell>
        <mxCell id="EqAeNS77DgcHfNquhwQE-69" value="danger:&amp;nbsp;FoodAdditive [0...*]" style="text;strokeColor=none;fillColor=none;align=left;verticalAlign=middle;spacingLeft=4;spacingRight=4;overflow=hidden;points=[[0,0.5],[1,0.5]];portConstraint=eastwest;rotatable=0;whiteSpace=wrap;html=1;" vertex="1" parent="EqAeNS77DgcHfNquhwQE-66">
          <mxGeometry y="90" width="177" height="30" as="geometry" />
        </mxCell>
      </root>
    </mxGraphModel>
  </diagram>
</mxfile>
